<?xml version="1.0" encoding="utf-8" standalone="no"?>
<!DOCTYPE svg PUBLIC "-//W3C//DTD SVG 1.1//EN"
  "http://www.w3.org/Graphics/SVG/1.1/DTD/svg11.dtd">
<!-- Created with matplotlib (https://matplotlib.org/) -->
<svg height="633.6pt" version="1.1" viewBox="0 0 921.6 633.6" width="921.6pt" xmlns="http://www.w3.org/2000/svg" xmlns:xlink="http://www.w3.org/1999/xlink">
 <defs>
  <style type="text/css">
*{stroke-linecap:butt;stroke-linejoin:round;}
  </style>
 </defs>
 <g id="figure_1">
  <g id="patch_1">
   <path d="M 0 633.6 
L 921.6 633.6 
L 921.6 0 
L 0 0 
z
" style="fill:#ffffff;"/>
  </g>
  <g id="axes_1">
   <g id="patch_2">
    <path d="M 115.2 554.4 
L 829.44 554.4 
L 829.44 76.032 
L 115.2 76.032 
z
" style="fill:#ffffff;"/>
   </g>
   <g id="matplotlib.axis_1">
    <g id="xtick_1">
     <g id="line2d_1"/>
     <g id="text_1">
      <!-- Day_1 -->
      <defs>
       <path d="M 67.4375 35.109375 
Q 67.4375 26.515625 64.84375 19.9375 
Q 62.25 13.375 57.75 8.953125 
Q 53.265625 4.546875 47.140625 2.265625 
Q 41.015625 0 33.9375 0 
L 8.203125 0 
L 8.203125 68.796875 
L 30.953125 68.796875 
Q 38.921875 68.796875 45.625 66.8125 
Q 52.34375 64.84375 57.171875 60.71875 
Q 62.015625 56.59375 64.71875 50.234375 
Q 67.4375 43.890625 67.4375 35.109375 
z
M 58.0625 35.109375 
Q 58.0625 42.09375 56.046875 47.046875 
Q 54.046875 52 50.4375 55.171875 
Q 46.828125 58.34375 41.796875 59.828125 
Q 36.765625 61.328125 30.765625 61.328125 
L 17.53125 61.328125 
L 17.53125 7.46875 
L 32.859375 7.46875 
Q 38.28125 7.46875 42.890625 9.21875 
Q 47.515625 10.984375 50.875 14.453125 
Q 54.25 17.921875 56.15625 23.09375 
Q 58.0625 28.265625 58.0625 35.109375 
z
" id="LiberationSans-68"/>
       <path d="M 20.21875 -0.984375 
Q 12.25 -0.984375 8.25 3.21875 
Q 4.25 7.421875 4.25 14.75 
Q 4.25 19.96875 6.21875 23.3125 
Q 8.203125 26.65625 11.390625 28.5625 
Q 14.59375 30.46875 18.6875 31.203125 
Q 22.796875 31.9375 27.046875 32.03125 
L 38.921875 32.234375 
L 38.921875 35.109375 
Q 38.921875 38.375 38.234375 40.671875 
Q 37.546875 42.96875 36.125 44.375 
Q 34.71875 45.796875 32.59375 46.453125 
Q 30.46875 47.125 27.59375 47.125 
Q 25.046875 47.125 23 46.75 
Q 20.953125 46.390625 19.4375 45.4375 
Q 17.921875 44.484375 16.984375 42.84375 
Q 16.0625 41.21875 15.765625 38.71875 
L 6.59375 39.546875 
Q 7.078125 42.671875 8.4375 45.28125 
Q 9.8125 47.90625 12.328125 49.796875 
Q 14.84375 51.703125 18.625 52.75 
Q 22.40625 53.8125 27.78125 53.8125 
Q 37.75 53.8125 42.765625 49.234375 
Q 47.796875 44.671875 47.796875 36.03125 
L 47.796875 13.28125 
Q 47.796875 9.375 48.828125 7.390625 
Q 49.859375 5.421875 52.734375 5.421875 
Q 53.46875 5.421875 54.203125 5.515625 
Q 54.9375 5.609375 55.609375 5.765625 
L 55.609375 0.296875 
Q 53.953125 -0.09375 52.3125 -0.28125 
Q 50.6875 -0.484375 48.828125 -0.484375 
Q 46.34375 -0.484375 44.5625 0.171875 
Q 42.78125 0.828125 41.65625 2.171875 
Q 40.53125 3.515625 39.9375 5.484375 
Q 39.359375 7.46875 39.203125 10.109375 
L 38.921875 10.109375 
Q 37.5 7.5625 35.8125 5.515625 
Q 34.125 3.46875 31.875 2.03125 
Q 29.640625 0.59375 26.78125 -0.1875 
Q 23.921875 -0.984375 20.21875 -0.984375 
z
M 22.21875 5.609375 
Q 26.421875 5.609375 29.5625 7.140625 
Q 32.71875 8.6875 34.78125 11.078125 
Q 36.859375 13.484375 37.890625 16.3125 
Q 38.921875 19.140625 38.921875 21.734375 
L 38.921875 26.078125 
L 29.296875 25.875 
Q 26.078125 25.828125 23.171875 25.40625 
Q 20.265625 25 18.0625 23.78125 
Q 15.875 22.5625 14.578125 20.359375 
Q 13.28125 18.171875 13.28125 14.59375 
Q 13.28125 10.296875 15.59375 7.953125 
Q 17.921875 5.609375 22.21875 5.609375 
z
" id="LiberationSans-97"/>
       <path d="M 29.5 0 
Q 27.640625 -4.78125 25.703125 -8.609375 
Q 23.78125 -12.453125 21.390625 -15.15625 
Q 19 -17.875 16.0625 -19.3125 
Q 13.140625 -20.75 9.328125 -20.75 
Q 7.671875 -20.75 6.25 -20.65625 
Q 4.828125 -20.5625 3.265625 -20.21875 
L 3.265625 -13.625 
Q 4.203125 -13.765625 5.375 -13.84375 
Q 6.546875 -13.921875 7.375 -13.921875 
Q 11.234375 -13.921875 14.546875 -11.03125 
Q 17.875 -8.15625 20.359375 -1.859375 
L 21.1875 0.25 
L 0.25 52.828125 
L 9.625 52.828125 
L 20.75 23.640625 
Q 21.234375 22.3125 21.984375 20.109375 
Q 22.75 17.921875 23.5 15.71875 
Q 24.265625 13.53125 24.84375 11.765625 
Q 25.4375 10.015625 25.53125 9.578125 
Q 25.6875 10.109375 26.25 11.6875 
Q 26.8125 13.28125 27.515625 15.234375 
Q 28.21875 17.1875 28.953125 19.1875 
Q 29.6875 21.1875 30.171875 22.65625 
L 40.53125 52.828125 
L 49.8125 52.828125 
z
" id="LiberationSans-121"/>
       <path d="M -1.515625 -19.875 
L -1.515625 -13.53125 
L 56.734375 -13.53125 
L 56.734375 -19.875 
z
" id="LiberationSans-95"/>
       <path d="M 7.625 0 
L 7.625 7.46875 
L 25.140625 7.46875 
L 25.140625 60.40625 
L 9.625 49.3125 
L 9.625 57.625 
L 25.875 68.796875 
L 33.984375 68.796875 
L 33.984375 7.46875 
L 50.734375 7.46875 
L 50.734375 0 
z
" id="LiberationSans-49"/>
      </defs>
      <g style="fill:#262626;" transform="translate(127.78825 577.195)scale(0.16 -0.16)">
       <use xlink:href="#LiberationSans-68"/>
       <use x="72.216797" xlink:href="#LiberationSans-97"/>
       <use x="127.832031" xlink:href="#LiberationSans-121"/>
       <use x="177.832031" xlink:href="#LiberationSans-95"/>
       <use x="233.447266" xlink:href="#LiberationSans-49"/>
      </g>
     </g>
    </g>
    <g id="xtick_2">
     <g id="line2d_2"/>
     <g id="text_2">
      <!-- Day_2 -->
      <defs>
       <path d="M 5.03125 0 
L 5.03125 6.203125 
Q 7.515625 11.921875 11.109375 16.28125 
Q 14.703125 20.65625 18.65625 24.1875 
Q 22.609375 27.734375 26.484375 30.765625 
Q 30.375 33.796875 33.5 36.8125 
Q 36.625 39.84375 38.546875 43.15625 
Q 40.484375 46.484375 40.484375 50.6875 
Q 40.484375 53.609375 39.59375 55.828125 
Q 38.71875 58.0625 37.0625 59.5625 
Q 35.40625 61.078125 33.078125 61.828125 
Q 30.765625 62.59375 27.9375 62.59375 
Q 25.296875 62.59375 22.96875 61.859375 
Q 20.65625 61.140625 18.84375 59.671875 
Q 17.046875 58.203125 15.890625 56.03125 
Q 14.75 53.859375 14.40625 50.984375 
L 5.421875 51.8125 
Q 5.859375 55.515625 7.46875 58.78125 
Q 9.078125 62.0625 11.90625 64.53125 
Q 14.75 67 18.71875 68.40625 
Q 22.703125 69.828125 27.9375 69.828125 
Q 33.0625 69.828125 37.0625 68.609375 
Q 41.0625 67.390625 43.8125 64.984375 
Q 46.578125 62.59375 48.046875 59.078125 
Q 49.515625 55.5625 49.515625 50.984375 
Q 49.515625 47.515625 48.265625 44.390625 
Q 47.015625 41.265625 44.9375 38.421875 
Q 42.875 35.59375 40.140625 32.953125 
Q 37.40625 30.328125 34.421875 27.8125 
Q 31.453125 25.296875 28.421875 22.828125 
Q 25.390625 20.359375 22.71875 17.859375 
Q 20.0625 15.375 17.96875 12.8125 
Q 15.875 10.25 14.703125 7.46875 
L 50.59375 7.46875 
L 50.59375 0 
z
" id="LiberationSans-50"/>
      </defs>
      <g style="fill:#262626;" transform="translate(199.21225 577.195)scale(0.16 -0.16)">
       <use xlink:href="#LiberationSans-68"/>
       <use x="72.216797" xlink:href="#LiberationSans-97"/>
       <use x="127.832031" xlink:href="#LiberationSans-121"/>
       <use x="177.832031" xlink:href="#LiberationSans-95"/>
       <use x="233.447266" xlink:href="#LiberationSans-50"/>
      </g>
     </g>
    </g>
    <g id="xtick_3">
     <g id="line2d_3"/>
     <g id="text_3">
      <!-- Day_3 -->
      <defs>
       <path d="M 51.21875 19 
Q 51.21875 14.265625 49.671875 10.546875 
Q 48.140625 6.84375 45.1875 4.265625 
Q 42.234375 1.703125 37.859375 0.359375 
Q 33.5 -0.984375 27.875 -0.984375 
Q 21.484375 -0.984375 17.109375 0.609375 
Q 12.75 2.203125 9.90625 4.8125 
Q 7.078125 7.421875 5.65625 10.765625 
Q 4.25 14.109375 3.8125 17.671875 
L 12.890625 18.5 
Q 13.28125 15.765625 14.328125 13.515625 
Q 15.375 11.28125 17.1875 9.671875 
Q 19 8.0625 21.625 7.171875 
Q 24.265625 6.296875 27.875 6.296875 
Q 34.515625 6.296875 38.296875 9.5625 
Q 42.09375 12.84375 42.09375 19.28125 
Q 42.09375 23.09375 40.40625 25.40625 
Q 38.71875 27.734375 36.203125 29.03125 
Q 33.6875 30.328125 30.734375 30.765625 
Q 27.78125 31.203125 25.296875 31.203125 
L 20.3125 31.203125 
L 20.3125 38.8125 
L 25.09375 38.8125 
Q 27.59375 38.8125 30.265625 39.328125 
Q 32.953125 39.84375 35.171875 41.1875 
Q 37.40625 42.53125 38.84375 44.828125 
Q 40.28125 47.125 40.28125 50.6875 
Q 40.28125 56.203125 37.03125 59.390625 
Q 33.796875 62.59375 27.390625 62.59375 
Q 21.578125 62.59375 17.984375 59.609375 
Q 14.40625 56.640625 13.8125 51.21875 
L 4.984375 51.90625 
Q 5.515625 56.453125 7.46875 59.8125 
Q 9.421875 63.1875 12.421875 65.40625 
Q 15.4375 67.625 19.28125 68.71875 
Q 23.140625 69.828125 27.484375 69.828125 
Q 33.25 69.828125 37.390625 68.375 
Q 41.546875 66.9375 44.1875 64.46875 
Q 46.828125 62.015625 48.0625 58.6875 
Q 49.3125 55.375 49.3125 51.609375 
Q 49.3125 48.578125 48.484375 45.9375 
Q 47.65625 43.3125 45.890625 41.203125 
Q 44.140625 39.109375 41.421875 37.59375 
Q 38.71875 36.078125 34.90625 35.296875 
L 34.90625 35.109375 
Q 39.0625 34.671875 42.140625 33.21875 
Q 45.21875 31.78125 47.21875 29.625 
Q 49.21875 27.484375 50.21875 24.75 
Q 51.21875 22.015625 51.21875 19 
z
" id="LiberationSans-51"/>
      </defs>
      <g style="fill:#262626;" transform="translate(270.63625 577.195)scale(0.16 -0.16)">
       <use xlink:href="#LiberationSans-68"/>
       <use x="72.216797" xlink:href="#LiberationSans-97"/>
       <use x="127.832031" xlink:href="#LiberationSans-121"/>
       <use x="177.832031" xlink:href="#LiberationSans-95"/>
       <use x="233.447266" xlink:href="#LiberationSans-51"/>
      </g>
     </g>
    </g>
    <g id="xtick_4">
     <g id="line2d_4"/>
     <g id="text_4">
      <!-- Day_4 -->
      <defs>
       <path d="M 43.015625 15.578125 
L 43.015625 0 
L 34.71875 0 
L 34.71875 15.578125 
L 2.296875 15.578125 
L 2.296875 22.40625 
L 33.796875 68.796875 
L 43.015625 68.796875 
L 43.015625 22.515625 
L 52.6875 22.515625 
L 52.6875 15.578125 
z
M 34.71875 58.890625 
Q 34.625 58.640625 34.234375 57.9375 
Q 33.84375 57.234375 33.34375 56.34375 
Q 32.859375 55.46875 32.34375 54.5625 
Q 31.84375 53.65625 31.453125 53.078125 
L 13.8125 27.09375 
Q 13.578125 26.703125 13.109375 26.0625 
Q 12.640625 25.4375 12.15625 24.78125 
Q 11.671875 24.125 11.171875 23.484375 
Q 10.6875 22.859375 10.40625 22.515625 
L 34.71875 22.515625 
z
" id="LiberationSans-52"/>
      </defs>
      <g style="fill:#262626;" transform="translate(342.06025 577.195)scale(0.16 -0.16)">
       <use xlink:href="#LiberationSans-68"/>
       <use x="72.216797" xlink:href="#LiberationSans-97"/>
       <use x="127.832031" xlink:href="#LiberationSans-121"/>
       <use x="177.832031" xlink:href="#LiberationSans-95"/>
       <use x="233.447266" xlink:href="#LiberationSans-52"/>
      </g>
     </g>
    </g>
    <g id="xtick_5">
     <g id="line2d_5"/>
     <g id="text_5">
      <!-- Day_5 -->
      <defs>
       <path d="M 51.421875 22.40625 
Q 51.421875 17.234375 49.859375 12.9375 
Q 48.296875 8.640625 45.21875 5.53125 
Q 42.140625 2.4375 37.578125 0.71875 
Q 33.015625 -0.984375 27 -0.984375 
Q 21.578125 -0.984375 17.546875 0.28125 
Q 13.53125 1.5625 10.734375 3.78125 
Q 7.953125 6 6.3125 8.984375 
Q 4.6875 11.96875 4 15.375 
L 12.890625 16.40625 
Q 13.421875 14.453125 14.390625 12.625 
Q 15.375 10.796875 17.0625 9.34375 
Q 18.75 7.90625 21.21875 7.046875 
Q 23.6875 6.203125 27.203125 6.203125 
Q 30.609375 6.203125 33.390625 7.25 
Q 36.1875 8.296875 38.15625 10.34375 
Q 40.140625 12.40625 41.203125 15.375 
Q 42.28125 18.359375 42.28125 22.21875 
Q 42.28125 25.390625 41.25 28.046875 
Q 40.234375 30.71875 38.328125 32.640625 
Q 36.421875 34.578125 33.65625 35.640625 
Q 30.90625 36.71875 27.390625 36.71875 
Q 25.203125 36.71875 23.34375 36.328125 
Q 21.484375 35.9375 19.890625 35.25 
Q 18.3125 34.578125 17.015625 33.671875 
Q 15.71875 32.765625 14.59375 31.78125 
L 6 31.78125 
L 8.296875 68.796875 
L 47.40625 68.796875 
L 47.40625 61.328125 
L 16.3125 61.328125 
L 14.984375 39.5 
Q 17.328125 41.3125 20.84375 42.59375 
Q 24.359375 43.890625 29.203125 43.890625 
Q 34.328125 43.890625 38.421875 42.328125 
Q 42.53125 40.765625 45.40625 37.90625 
Q 48.296875 35.0625 49.859375 31.109375 
Q 51.421875 27.15625 51.421875 22.40625 
z
" id="LiberationSans-53"/>
      </defs>
      <g style="fill:#262626;" transform="translate(413.48425 577.195)scale(0.16 -0.16)">
       <use xlink:href="#LiberationSans-68"/>
       <use x="72.216797" xlink:href="#LiberationSans-97"/>
       <use x="127.832031" xlink:href="#LiberationSans-121"/>
       <use x="177.832031" xlink:href="#LiberationSans-95"/>
       <use x="233.447266" xlink:href="#LiberationSans-53"/>
      </g>
     </g>
    </g>
    <g id="xtick_6">
     <g id="line2d_6"/>
     <g id="text_6">
      <!-- Day_6 -->
      <defs>
       <path d="M 51.21875 22.515625 
Q 51.21875 17.328125 49.78125 13 
Q 48.34375 8.6875 45.53125 5.578125 
Q 42.71875 2.484375 38.5625 0.75 
Q 34.421875 -0.984375 29 -0.984375 
Q 23 -0.984375 18.5 1.3125 
Q 14.015625 3.609375 11.03125 7.921875 
Q 8.0625 12.25 6.5625 18.53125 
Q 5.078125 24.8125 5.078125 32.8125 
Q 5.078125 42 6.765625 48.921875 
Q 8.453125 55.859375 11.625 60.5 
Q 14.796875 65.140625 19.359375 67.484375 
Q 23.921875 69.828125 29.6875 69.828125 
Q 33.203125 69.828125 36.28125 69.09375 
Q 39.359375 68.359375 41.875 66.71875 
Q 44.390625 65.09375 46.28125 62.40625 
Q 48.1875 59.71875 49.3125 55.8125 
L 40.921875 54.296875 
Q 39.546875 58.734375 36.546875 60.71875 
Q 33.546875 62.703125 29.59375 62.703125 
Q 25.984375 62.703125 23.046875 60.984375 
Q 20.125 59.28125 18.0625 55.875 
Q 16.015625 52.484375 14.90625 47.359375 
Q 13.8125 42.234375 13.8125 35.40625 
Q 16.21875 39.84375 20.5625 42.15625 
Q 24.90625 44.484375 30.515625 44.484375 
Q 35.203125 44.484375 39.015625 42.96875 
Q 42.828125 41.453125 45.53125 38.59375 
Q 48.25 35.75 49.734375 31.671875 
Q 51.21875 27.59375 51.21875 22.515625 
z
M 42.28125 22.125 
Q 42.28125 25.6875 41.40625 28.5625 
Q 40.53125 31.453125 38.765625 33.46875 
Q 37.015625 35.5 34.421875 36.59375 
Q 31.84375 37.703125 28.421875 37.703125 
Q 26.03125 37.703125 23.578125 36.984375 
Q 21.140625 36.28125 19.15625 34.6875 
Q 17.1875 33.109375 15.9375 30.515625 
Q 14.703125 27.9375 14.703125 24.21875 
Q 14.703125 20.40625 15.671875 17.109375 
Q 16.65625 13.8125 18.484375 11.375 
Q 20.3125 8.9375 22.890625 7.515625 
Q 25.484375 6.109375 28.71875 6.109375 
Q 31.890625 6.109375 34.40625 7.203125 
Q 36.921875 8.296875 38.671875 10.375 
Q 40.4375 12.453125 41.359375 15.421875 
Q 42.28125 18.40625 42.28125 22.125 
z
" id="LiberationSans-54"/>
      </defs>
      <g style="fill:#262626;" transform="translate(484.90825 577.195)scale(0.16 -0.16)">
       <use xlink:href="#LiberationSans-68"/>
       <use x="72.216797" xlink:href="#LiberationSans-97"/>
       <use x="127.832031" xlink:href="#LiberationSans-121"/>
       <use x="177.832031" xlink:href="#LiberationSans-95"/>
       <use x="233.447266" xlink:href="#LiberationSans-54"/>
      </g>
     </g>
    </g>
    <g id="xtick_7">
     <g id="line2d_7"/>
     <g id="text_7">
      <!-- Day_7 -->
      <defs>
       <path d="M 50.59375 61.671875 
Q 45.40625 53.765625 41.0625 46.453125 
Q 36.71875 39.15625 33.59375 31.75 
Q 30.46875 24.359375 28.734375 16.578125 
Q 27 8.796875 27 0 
L 17.828125 0 
Q 17.828125 8.25 19.78125 16.1875 
Q 21.734375 24.125 25.046875 31.765625 
Q 28.375 39.40625 32.765625 46.78125 
Q 37.15625 54.15625 42.09375 61.328125 
L 5.125 61.328125 
L 5.125 68.796875 
L 50.59375 68.796875 
z
" id="LiberationSans-55"/>
      </defs>
      <g style="fill:#262626;" transform="translate(556.33225 577.195)scale(0.16 -0.16)">
       <use xlink:href="#LiberationSans-68"/>
       <use x="72.216797" xlink:href="#LiberationSans-97"/>
       <use x="127.832031" xlink:href="#LiberationSans-121"/>
       <use x="177.832031" xlink:href="#LiberationSans-95"/>
       <use x="233.447266" xlink:href="#LiberationSans-55"/>
      </g>
     </g>
    </g>
    <g id="xtick_8">
     <g id="line2d_8"/>
     <g id="text_8">
      <!-- Day_8 -->
      <defs>
       <path d="M 51.265625 19.1875 
Q 51.265625 14.796875 49.875 11.109375 
Q 48.484375 7.421875 45.625 4.734375 
Q 42.78125 2.046875 38.328125 0.53125 
Q 33.890625 -0.984375 27.828125 -0.984375 
Q 21.78125 -0.984375 17.359375 0.53125 
Q 12.9375 2.046875 10.03125 4.703125 
Q 7.125 7.375 5.734375 11.0625 
Q 4.34375 14.75 4.34375 19.09375 
Q 4.34375 22.859375 5.484375 25.78125 
Q 6.640625 28.71875 8.5625 30.828125 
Q 10.5 32.953125 12.96875 34.25 
Q 15.4375 35.546875 18.0625 35.984375 
L 18.0625 36.1875 
Q 15.1875 36.859375 12.90625 38.375 
Q 10.640625 39.890625 9.09375 42.015625 
Q 7.5625 44.140625 6.75 46.71875 
Q 5.953125 49.3125 5.953125 52.203125 
Q 5.953125 55.8125 7.34375 59 
Q 8.734375 62.203125 11.46875 64.625 
Q 14.203125 67.046875 18.25 68.4375 
Q 22.3125 69.828125 27.640625 69.828125 
Q 33.25 69.828125 37.375 68.40625 
Q 41.5 67 44.203125 64.578125 
Q 46.921875 62.15625 48.234375 58.9375 
Q 49.5625 55.71875 49.5625 52.09375 
Q 49.5625 49.265625 48.75 46.671875 
Q 47.953125 44.09375 46.40625 41.96875 
Q 44.875 39.84375 42.59375 38.34375 
Q 40.328125 36.859375 37.359375 36.28125 
L 37.359375 36.078125 
Q 40.328125 35.59375 42.859375 34.296875 
Q 45.40625 33.015625 47.265625 30.890625 
Q 49.125 28.765625 50.1875 25.828125 
Q 51.265625 22.90625 51.265625 19.1875 
z
M 40.4375 51.609375 
Q 40.4375 54.203125 39.765625 56.34375 
Q 39.109375 58.5 37.59375 60.03125 
Q 36.078125 61.578125 33.640625 62.421875 
Q 31.203125 63.28125 27.640625 63.28125 
Q 24.171875 63.28125 21.78125 62.421875 
Q 19.390625 61.578125 17.84375 60.03125 
Q 16.3125 58.5 15.625 56.34375 
Q 14.9375 54.203125 14.9375 51.609375 
Q 14.9375 49.5625 15.46875 47.40625 
Q 16.015625 45.265625 17.421875 43.5 
Q 18.84375 41.75 21.328125 40.625 
Q 23.828125 39.5 27.734375 39.5 
Q 31.890625 39.5 34.40625 40.625 
Q 36.921875 41.75 38.25 43.5 
Q 39.59375 45.265625 40.015625 47.40625 
Q 40.4375 49.5625 40.4375 51.609375 
z
M 42.140625 20.015625 
Q 42.140625 22.515625 41.453125 24.828125 
Q 40.765625 27.15625 39.109375 28.9375 
Q 37.453125 30.71875 34.640625 31.8125 
Q 31.84375 32.90625 27.640625 32.90625 
Q 23.78125 32.90625 21.0625 31.8125 
Q 18.359375 30.71875 16.671875 28.90625 
Q 14.984375 27.09375 14.203125 24.71875 
Q 13.421875 22.359375 13.421875 19.828125 
Q 13.421875 16.65625 14.203125 14.03125 
Q 14.984375 11.421875 16.6875 9.546875 
Q 18.40625 7.671875 21.1875 6.640625 
Q 23.96875 5.609375 27.9375 5.609375 
Q 31.9375 5.609375 34.671875 6.640625 
Q 37.40625 7.671875 39.0625 9.546875 
Q 40.71875 11.421875 41.421875 14.078125 
Q 42.140625 16.75 42.140625 20.015625 
z
" id="LiberationSans-56"/>
      </defs>
      <g style="fill:#262626;" transform="translate(627.75625 577.195)scale(0.16 -0.16)">
       <use xlink:href="#LiberationSans-68"/>
       <use x="72.216797" xlink:href="#LiberationSans-97"/>
       <use x="127.832031" xlink:href="#LiberationSans-121"/>
       <use x="177.832031" xlink:href="#LiberationSans-95"/>
       <use x="233.447266" xlink:href="#LiberationSans-56"/>
      </g>
     </g>
    </g>
    <g id="xtick_9">
     <g id="line2d_9"/>
     <g id="text_9">
      <!-- Day_9 -->
      <defs>
       <path d="M 50.875 35.796875 
Q 50.875 26.609375 49.140625 19.703125 
Q 47.40625 12.796875 44.1875 8.203125 
Q 40.96875 3.609375 36.34375 1.3125 
Q 31.734375 -0.984375 25.984375 -0.984375 
Q 22.015625 -0.984375 18.84375 -0.171875 
Q 15.671875 0.640625 13.171875 2.34375 
Q 10.6875 4.046875 8.921875 6.78125 
Q 7.171875 9.515625 6.109375 13.375 
L 14.5 14.703125 
Q 15.875 10.25 18.78125 8.171875 
Q 21.6875 6.109375 26.125 6.109375 
Q 29.6875 6.109375 32.640625 7.78125 
Q 35.59375 9.46875 37.671875 12.84375 
Q 39.75 16.21875 40.921875 21.296875 
Q 42.09375 26.375 42.1875 33.203125 
Q 41.15625 30.90625 39.375 29.09375 
Q 37.59375 27.296875 35.328125 26.046875 
Q 33.0625 24.8125 30.421875 24.140625 
Q 27.78125 23.484375 25.09375 23.484375 
Q 20.40625 23.484375 16.625 25.171875 
Q 12.84375 26.859375 10.203125 29.875 
Q 7.5625 32.90625 6.125 37.171875 
Q 4.6875 41.453125 4.6875 46.6875 
Q 4.6875 52 6.21875 56.296875 
Q 7.765625 60.59375 10.6875 63.59375 
Q 13.625 66.609375 17.890625 68.21875 
Q 22.171875 69.828125 27.59375 69.828125 
Q 39.0625 69.828125 44.96875 61.328125 
Q 50.875 52.828125 50.875 35.796875 
z
M 41.3125 44.28125 
Q 41.3125 48.09375 40.40625 51.453125 
Q 39.5 54.828125 37.71875 57.3125 
Q 35.9375 59.8125 33.328125 61.25 
Q 30.71875 62.703125 27.296875 62.703125 
Q 24.125 62.703125 21.578125 61.578125 
Q 19.046875 60.453125 17.28125 58.375 
Q 15.53125 56.296875 14.578125 53.3125 
Q 13.625 50.34375 13.625 46.6875 
Q 13.625 43.21875 14.46875 40.234375 
Q 15.328125 37.25 17.03125 35.078125 
Q 18.75 32.90625 21.28125 31.65625 
Q 23.828125 30.421875 27.203125 30.421875 
Q 29.640625 30.421875 32.15625 31.25 
Q 34.671875 32.078125 36.6875 33.78125 
Q 38.71875 35.5 40.015625 38.109375 
Q 41.3125 40.71875 41.3125 44.28125 
z
" id="LiberationSans-57"/>
      </defs>
      <g style="fill:#262626;" transform="translate(699.18025 577.195)scale(0.16 -0.16)">
       <use xlink:href="#LiberationSans-68"/>
       <use x="72.216797" xlink:href="#LiberationSans-97"/>
       <use x="127.832031" xlink:href="#LiberationSans-121"/>
       <use x="177.832031" xlink:href="#LiberationSans-95"/>
       <use x="233.447266" xlink:href="#LiberationSans-57"/>
      </g>
     </g>
    </g>
    <g id="xtick_10">
     <g id="line2d_10"/>
     <g id="text_10">
      <!-- Day_10 -->
      <defs>
       <path d="M 51.703125 34.421875 
Q 51.703125 24.515625 49.828125 17.75 
Q 47.953125 10.984375 44.703125 6.8125 
Q 41.453125 2.640625 37.0625 0.828125 
Q 32.671875 -0.984375 27.6875 -0.984375 
Q 22.65625 -0.984375 18.3125 0.828125 
Q 13.96875 2.640625 10.765625 6.78125 
Q 7.5625 10.9375 5.734375 17.703125 
Q 3.90625 24.46875 3.90625 34.421875 
Q 3.90625 44.828125 5.734375 51.640625 
Q 7.5625 58.453125 10.78125 62.5 
Q 14.015625 66.546875 18.40625 68.1875 
Q 22.796875 69.828125 27.984375 69.828125 
Q 32.90625 69.828125 37.21875 68.1875 
Q 41.546875 66.546875 44.765625 62.5 
Q 48 58.453125 49.84375 51.640625 
Q 51.703125 44.828125 51.703125 34.421875 
z
M 42.78125 34.421875 
Q 42.78125 42.625 41.796875 48.0625 
Q 40.828125 53.515625 38.921875 56.765625 
Q 37.015625 60.015625 34.25 61.359375 
Q 31.5 62.703125 27.984375 62.703125 
Q 24.265625 62.703125 21.4375 61.328125 
Q 18.609375 59.96875 16.671875 56.71875 
Q 14.75 53.46875 13.765625 48.015625 
Q 12.796875 42.578125 12.796875 34.421875 
Q 12.796875 26.515625 13.796875 21.09375 
Q 14.796875 15.671875 16.71875 12.375 
Q 18.65625 9.078125 21.4375 7.640625 
Q 24.21875 6.203125 27.78125 6.203125 
Q 31.25 6.203125 34.03125 7.640625 
Q 36.8125 9.078125 38.734375 12.375 
Q 40.671875 15.671875 41.71875 21.09375 
Q 42.78125 26.515625 42.78125 34.421875 
z
" id="LiberationSans-48"/>
      </defs>
      <g style="fill:#262626;" transform="translate(766.1555 577.195)scale(0.16 -0.16)">
       <use xlink:href="#LiberationSans-68"/>
       <use x="72.216797" xlink:href="#LiberationSans-97"/>
       <use x="127.832031" xlink:href="#LiberationSans-121"/>
       <use x="177.832031" xlink:href="#LiberationSans-95"/>
       <use x="233.447266" xlink:href="#LiberationSans-49"/>
       <use x="289.0625" xlink:href="#LiberationSans-48"/>
      </g>
     </g>
    </g>
    <g id="text_11">
     <!-- Day -->
     <g style="fill:#262626;" transform="translate(456.671125 597.2695)scale(0.176 -0.176)">
      <use xlink:href="#LiberationSans-68"/>
      <use x="72.216797" xlink:href="#LiberationSans-97"/>
      <use x="127.832031" xlink:href="#LiberationSans-121"/>
     </g>
    </g>
   </g>
   <g id="matplotlib.axis_2">
    <g id="ytick_1">
     <g id="line2d_11">
      <path clip-path="url(#p5f2e1479fc)" d="M 115.2 531.160453 
L 829.44 531.160453 
" style="fill:none;stroke:#cccccc;stroke-linecap:round;stroke-width:1.6;"/>
     </g>
     <g id="line2d_12"/>
     <g id="text_12">
      <!-- 0.0 -->
      <defs>
       <path d="M 9.125 0 
L 9.125 10.6875 
L 18.65625 10.6875 
L 18.65625 0 
z
" id="LiberationSans-46"/>
      </defs>
      <g style="fill:#262626;" transform="translate(81.76 536.957953)scale(0.16 -0.16)">
       <use xlink:href="#LiberationSans-48"/>
       <use x="55.615234" xlink:href="#LiberationSans-46"/>
       <use x="83.398438" xlink:href="#LiberationSans-48"/>
      </g>
     </g>
    </g>
    <g id="ytick_2">
     <g id="line2d_13">
      <path clip-path="url(#p5f2e1479fc)" d="M 115.2 476.128576 
L 829.44 476.128576 
" style="fill:none;stroke:#cccccc;stroke-linecap:round;stroke-width:1.6;"/>
     </g>
     <g id="line2d_14"/>
     <g id="text_13">
      <!-- 2.5 -->
      <g style="fill:#262626;" transform="translate(81.76 481.926076)scale(0.16 -0.16)">
       <use xlink:href="#LiberationSans-50"/>
       <use x="55.615234" xlink:href="#LiberationSans-46"/>
       <use x="83.398438" xlink:href="#LiberationSans-53"/>
      </g>
     </g>
    </g>
    <g id="ytick_3">
     <g id="line2d_15">
      <path clip-path="url(#p5f2e1479fc)" d="M 115.2 421.0967 
L 829.44 421.0967 
" style="fill:none;stroke:#cccccc;stroke-linecap:round;stroke-width:1.6;"/>
     </g>
     <g id="line2d_16"/>
     <g id="text_14">
      <!-- 5.0 -->
      <g style="fill:#262626;" transform="translate(81.76 426.8942)scale(0.16 -0.16)">
       <use xlink:href="#LiberationSans-53"/>
       <use x="55.615234" xlink:href="#LiberationSans-46"/>
       <use x="83.398438" xlink:href="#LiberationSans-48"/>
      </g>
     </g>
    </g>
    <g id="ytick_4">
     <g id="line2d_17">
      <path clip-path="url(#p5f2e1479fc)" d="M 115.2 366.064824 
L 829.44 366.064824 
" style="fill:none;stroke:#cccccc;stroke-linecap:round;stroke-width:1.6;"/>
     </g>
     <g id="line2d_18"/>
     <g id="text_15">
      <!-- 7.5 -->
      <g style="fill:#262626;" transform="translate(81.76 371.862324)scale(0.16 -0.16)">
       <use xlink:href="#LiberationSans-55"/>
       <use x="55.615234" xlink:href="#LiberationSans-46"/>
       <use x="83.398438" xlink:href="#LiberationSans-53"/>
      </g>
     </g>
    </g>
    <g id="ytick_5">
     <g id="line2d_19">
      <path clip-path="url(#p5f2e1479fc)" d="M 115.2 311.032948 
L 829.44 311.032948 
" style="fill:none;stroke:#cccccc;stroke-linecap:round;stroke-width:1.6;"/>
     </g>
     <g id="line2d_20"/>
     <g id="text_16">
      <!-- 10.0 -->
      <g style="fill:#262626;" transform="translate(72.8625 316.830448)scale(0.16 -0.16)">
       <use xlink:href="#LiberationSans-49"/>
       <use x="55.615234" xlink:href="#LiberationSans-48"/>
       <use x="111.230469" xlink:href="#LiberationSans-46"/>
       <use x="139.013672" xlink:href="#LiberationSans-48"/>
      </g>
     </g>
    </g>
    <g id="ytick_6">
     <g id="line2d_21">
      <path clip-path="url(#p5f2e1479fc)" d="M 115.2 256.001072 
L 829.44 256.001072 
" style="fill:none;stroke:#cccccc;stroke-linecap:round;stroke-width:1.6;"/>
     </g>
     <g id="line2d_22"/>
     <g id="text_17">
      <!-- 12.5 -->
      <g style="fill:#262626;" transform="translate(72.8625 261.798572)scale(0.16 -0.16)">
       <use xlink:href="#LiberationSans-49"/>
       <use x="55.615234" xlink:href="#LiberationSans-50"/>
       <use x="111.230469" xlink:href="#LiberationSans-46"/>
       <use x="139.013672" xlink:href="#LiberationSans-53"/>
      </g>
     </g>
    </g>
    <g id="ytick_7">
     <g id="line2d_23">
      <path clip-path="url(#p5f2e1479fc)" d="M 115.2 200.969195 
L 829.44 200.969195 
" style="fill:none;stroke:#cccccc;stroke-linecap:round;stroke-width:1.6;"/>
     </g>
     <g id="line2d_24"/>
     <g id="text_18">
      <!-- 15.0 -->
      <g style="fill:#262626;" transform="translate(72.8625 206.766695)scale(0.16 -0.16)">
       <use xlink:href="#LiberationSans-49"/>
       <use x="55.615234" xlink:href="#LiberationSans-53"/>
       <use x="111.230469" xlink:href="#LiberationSans-46"/>
       <use x="139.013672" xlink:href="#LiberationSans-48"/>
      </g>
     </g>
    </g>
    <g id="ytick_8">
     <g id="line2d_25">
      <path clip-path="url(#p5f2e1479fc)" d="M 115.2 145.937319 
L 829.44 145.937319 
" style="fill:none;stroke:#cccccc;stroke-linecap:round;stroke-width:1.6;"/>
     </g>
     <g id="line2d_26"/>
     <g id="text_19">
      <!-- 17.5 -->
      <g style="fill:#262626;" transform="translate(72.8625 151.734819)scale(0.16 -0.16)">
       <use xlink:href="#LiberationSans-49"/>
       <use x="55.615234" xlink:href="#LiberationSans-55"/>
       <use x="111.230469" xlink:href="#LiberationSans-46"/>
       <use x="139.013672" xlink:href="#LiberationSans-53"/>
      </g>
     </g>
    </g>
    <g id="ytick_9">
     <g id="line2d_27">
      <path clip-path="url(#p5f2e1479fc)" d="M 115.2 90.905443 
L 829.44 90.905443 
" style="fill:none;stroke:#cccccc;stroke-linecap:round;stroke-width:1.6;"/>
     </g>
     <g id="line2d_28"/>
     <g id="text_20">
      <!-- 20.0 -->
      <g style="fill:#262626;" transform="translate(72.8625 96.702943)scale(0.16 -0.16)">
       <use xlink:href="#LiberationSans-50"/>
       <use x="55.615234" xlink:href="#LiberationSans-48"/>
       <use x="111.230469" xlink:href="#LiberationSans-46"/>
       <use x="139.013672" xlink:href="#LiberationSans-48"/>
      </g>
     </g>
    </g>
    <g id="text_21">
     <!-- yield -->
     <defs>
      <path d="M 6.6875 64.0625 
L 6.6875 72.46875 
L 15.484375 72.46875 
L 15.484375 64.0625 
z
M 6.6875 0 
L 6.6875 52.828125 
L 15.484375 52.828125 
L 15.484375 0 
z
" id="LiberationSans-105"/>
      <path d="M 13.484375 24.5625 
Q 13.484375 20.40625 14.328125 16.90625 
Q 15.1875 13.421875 16.96875 10.90625 
Q 18.75 8.40625 21.53125 7 
Q 24.3125 5.609375 28.21875 5.609375 
Q 33.9375 5.609375 37.375 7.90625 
Q 40.828125 10.203125 42.046875 13.71875 
L 49.75 11.53125 
Q 48.921875 9.328125 47.4375 7.109375 
Q 45.953125 4.890625 43.453125 3.09375 
Q 40.96875 1.3125 37.234375 0.15625 
Q 33.5 -0.984375 28.21875 -0.984375 
Q 16.5 -0.984375 10.375 6 
Q 4.25 12.984375 4.25 26.765625 
Q 4.25 34.1875 6.09375 39.328125 
Q 7.953125 44.484375 11.171875 47.703125 
Q 14.40625 50.921875 18.703125 52.359375 
Q 23 53.8125 27.875 53.8125 
Q 34.515625 53.8125 38.984375 51.65625 
Q 43.453125 49.515625 46.15625 45.71875 
Q 48.875 41.9375 50.015625 36.8125 
Q 51.171875 31.6875 51.171875 25.734375 
L 51.171875 24.5625 
z
M 42.09375 31.296875 
Q 41.359375 39.65625 37.84375 43.484375 
Q 34.328125 47.3125 27.734375 47.3125 
Q 25.53125 47.3125 23.109375 46.609375 
Q 20.703125 45.90625 18.65625 44.09375 
Q 16.609375 42.28125 15.1875 39.171875 
Q 13.765625 36.078125 13.578125 31.296875 
z
" id="LiberationSans-101"/>
      <path d="M 6.734375 0 
L 6.734375 72.46875 
L 15.53125 72.46875 
L 15.53125 0 
z
" id="LiberationSans-108"/>
      <path d="M 40.09375 8.5 
Q 37.640625 3.421875 33.609375 1.21875 
Q 29.59375 -0.984375 23.640625 -0.984375 
Q 13.625 -0.984375 8.90625 5.75 
Q 4.203125 12.5 4.203125 26.171875 
Q 4.203125 53.8125 23.640625 53.8125 
Q 29.640625 53.8125 33.640625 51.609375 
Q 37.640625 49.421875 40.09375 44.625 
L 40.1875 44.625 
Q 40.1875 45.125 40.15625 46.171875 
Q 40.140625 47.21875 40.109375 48.359375 
Q 40.09375 49.515625 40.09375 50.53125 
Q 40.09375 51.5625 40.09375 52 
L 40.09375 72.46875 
L 48.875 72.46875 
L 48.875 10.890625 
Q 48.875 8.984375 48.890625 7.21875 
Q 48.921875 5.46875 48.96875 4 
Q 49.03125 2.546875 49.078125 1.484375 
Q 49.125 0.4375 49.171875 0 
L 40.765625 0 
Q 40.671875 0.484375 40.59375 1.390625 
Q 40.53125 2.296875 40.453125 3.46875 
Q 40.375 4.640625 40.328125 5.9375 
Q 40.28125 7.234375 40.28125 8.5 
z
M 13.421875 26.46875 
Q 13.421875 21 14.109375 17.09375 
Q 14.796875 13.1875 16.3125 10.671875 
Q 17.828125 8.15625 20.171875 6.984375 
Q 22.515625 5.8125 25.875 5.8125 
Q 29.34375 5.8125 32 6.9375 
Q 34.671875 8.0625 36.453125 10.578125 
Q 38.234375 13.09375 39.15625 17.140625 
Q 40.09375 21.1875 40.09375 27.046875 
Q 40.09375 32.671875 39.15625 36.546875 
Q 38.234375 40.4375 36.421875 42.828125 
Q 34.625 45.21875 32 46.265625 
Q 29.390625 47.3125 25.984375 47.3125 
Q 22.75 47.3125 20.40625 46.1875 
Q 18.0625 45.0625 16.5 42.578125 
Q 14.9375 40.09375 14.171875 36.109375 
Q 13.421875 32.125 13.421875 26.46875 
z
" id="LiberationSans-100"/>
     </defs>
     <g style="fill:#262626;" transform="translate(65.2105 333.31375)rotate(-90)scale(0.176 -0.176)">
      <use xlink:href="#LiberationSans-121"/>
      <use x="50" xlink:href="#LiberationSans-105"/>
      <use x="72.216797" xlink:href="#LiberationSans-101"/>
      <use x="127.832031" xlink:href="#LiberationSans-108"/>
      <use x="150.048828" xlink:href="#LiberationSans-100"/>
     </g>
    </g>
   </g>
   <g id="patch_3">
    <path clip-path="url(#p5f2e1479fc)" d="M 122.3424 531.478091 
L 179.4816 531.478091 
L 179.4816 466.731151 
L 122.3424 466.731151 
L 122.3424 531.478091 
z
" style="fill:#f0ea94;stroke:#747474;stroke-linejoin:miter;stroke-width:2.8;"/>
   </g>
   <g id="patch_4">
    <path clip-path="url(#p5f2e1479fc)" d="M 193.7664 518.583959 
L 250.9056 518.583959 
L 250.9056 460.234454 
L 193.7664 460.234454 
L 193.7664 518.583959 
z
" style="fill:#f0ea94;stroke:#747474;stroke-linejoin:miter;stroke-width:2.8;"/>
   </g>
   <g id="patch_5">
    <path clip-path="url(#p5f2e1479fc)" d="M 265.1904 465.700481 
L 322.3296 465.700481 
L 322.3296 416.582341 
L 265.1904 416.582341 
L 265.1904 465.700481 
z
" style="fill:#f0ea94;stroke:#747474;stroke-linejoin:miter;stroke-width:2.8;"/>
   </g>
   <g id="patch_6">
    <path clip-path="url(#p5f2e1479fc)" d="M 336.6144 520.921579 
L 393.7536 520.921579 
L 393.7536 374.098211 
L 336.6144 374.098211 
L 336.6144 520.921579 
z
" style="fill:#f0ea94;stroke:#747474;stroke-linejoin:miter;stroke-width:2.8;"/>
   </g>
   <g id="patch_7">
    <path clip-path="url(#p5f2e1479fc)" d="M 408.0384 400.887367 
L 465.1776 400.887367 
L 465.1776 363.222406 
L 408.0384 363.222406 
L 408.0384 400.887367 
z
" style="fill:#f0ea94;stroke:#747474;stroke-linejoin:miter;stroke-width:2.8;"/>
   </g>
   <g id="patch_8">
    <path clip-path="url(#p5f2e1479fc)" d="M 479.4624 405.476579 
L 536.6016 405.476579 
L 536.6016 315.394672 
L 479.4624 315.394672 
L 479.4624 405.476579 
z
" style="fill:#f0ea94;stroke:#747474;stroke-linejoin:miter;stroke-width:2.8;"/>
   </g>
   <g id="patch_9">
    <path clip-path="url(#p5f2e1479fc)" d="M 550.8864 508.689193 
L 608.0256 508.689193 
L 608.0256 277.388911 
L 550.8864 277.388911 
L 550.8864 508.689193 
z
" style="fill:#f0ea94;stroke:#747474;stroke-linejoin:miter;stroke-width:2.8;"/>
   </g>
   <g id="patch_10">
    <path clip-path="url(#p5f2e1479fc)" d="M 622.3104 432.340182 
L 679.4496 432.340182 
L 679.4496 387.534975 
L 622.3104 387.534975 
L 622.3104 432.340182 
z
" style="fill:#f0ea94;stroke:#747474;stroke-linejoin:miter;stroke-width:2.8;"/>
   </g>
   <g id="patch_11">
    <path clip-path="url(#p5f2e1479fc)" d="M 693.7344 321.019517 
L 750.8736 321.019517 
L 750.8736 245.773968 
L 693.7344 245.773968 
L 693.7344 321.019517 
z
" style="fill:#f0ea94;stroke:#747474;stroke-linejoin:miter;stroke-width:2.8;"/>
   </g>
   <g id="patch_12">
    <path clip-path="url(#p5f2e1479fc)" d="M 765.1584 383.86559 
L 822.2976 383.86559 
L 822.2976 337.359695 
L 765.1584 337.359695 
L 765.1584 383.86559 
z
" style="fill:#f0ea94;stroke:#747474;stroke-linejoin:miter;stroke-width:2.8;"/>
   </g>
   <g id="line2d_29">
    <path clip-path="url(#p5f2e1479fc)" d="M 150.912 531.478091 
L 150.912 531.669998 
" style="fill:none;stroke:#747474;stroke-linecap:round;stroke-width:2.8;"/>
   </g>
   <g id="line2d_30">
    <path clip-path="url(#p5f2e1479fc)" d="M 150.912 466.731151 
L 150.912 372.122897 
" style="fill:none;stroke:#747474;stroke-linecap:round;stroke-width:2.8;"/>
   </g>
   <g id="line2d_31">
    <path clip-path="url(#p5f2e1479fc)" d="M 136.6272 531.669998 
L 165.1968 531.669998 
" style="fill:none;stroke:#747474;stroke-linecap:round;stroke-width:2.8;"/>
   </g>
   <g id="line2d_32">
    <path clip-path="url(#p5f2e1479fc)" d="M 136.6272 372.122897 
L 165.1968 372.122897 
" style="fill:none;stroke:#747474;stroke-linecap:round;stroke-width:2.8;"/>
   </g>
   <g id="line2d_33"/>
   <g id="line2d_34">
    <path clip-path="url(#p5f2e1479fc)" d="M 222.336 518.583959 
L 222.336 531.603823 
" style="fill:none;stroke:#747474;stroke-linecap:round;stroke-width:2.8;"/>
   </g>
   <g id="line2d_35">
    <path clip-path="url(#p5f2e1479fc)" d="M 222.336 460.234454 
L 222.336 432.454333 
" style="fill:none;stroke:#747474;stroke-linecap:round;stroke-width:2.8;"/>
   </g>
   <g id="line2d_36">
    <path clip-path="url(#p5f2e1479fc)" d="M 208.0512 531.603823 
L 236.6208 531.603823 
" style="fill:none;stroke:#747474;stroke-linecap:round;stroke-width:2.8;"/>
   </g>
   <g id="line2d_37">
    <path clip-path="url(#p5f2e1479fc)" d="M 208.0512 432.454333 
L 236.6208 432.454333 
" style="fill:none;stroke:#747474;stroke-linecap:round;stroke-width:2.8;"/>
   </g>
   <g id="line2d_38"/>
   <g id="line2d_39">
    <path clip-path="url(#p5f2e1479fc)" d="M 293.76 465.700481 
L 293.76 521.234254 
" style="fill:none;stroke:#747474;stroke-linecap:round;stroke-width:2.8;"/>
   </g>
   <g id="line2d_40">
    <path clip-path="url(#p5f2e1479fc)" d="M 293.76 416.582341 
L 293.76 390.47313 
" style="fill:none;stroke:#747474;stroke-linecap:round;stroke-width:2.8;"/>
   </g>
   <g id="line2d_41">
    <path clip-path="url(#p5f2e1479fc)" d="M 279.4752 521.234254 
L 308.0448 521.234254 
" style="fill:none;stroke:#747474;stroke-linecap:round;stroke-width:2.8;"/>
   </g>
   <g id="line2d_42">
    <path clip-path="url(#p5f2e1479fc)" d="M 279.4752 390.47313 
L 308.0448 390.47313 
" style="fill:none;stroke:#747474;stroke-linecap:round;stroke-width:2.8;"/>
   </g>
   <g id="line2d_43"/>
   <g id="line2d_44">
    <path clip-path="url(#p5f2e1479fc)" d="M 365.184 520.921579 
L 365.184 531.855287 
" style="fill:none;stroke:#747474;stroke-linecap:round;stroke-width:2.8;"/>
   </g>
   <g id="line2d_45">
    <path clip-path="url(#p5f2e1479fc)" d="M 365.184 374.098211 
L 365.184 337.592961 
" style="fill:none;stroke:#747474;stroke-linecap:round;stroke-width:2.8;"/>
   </g>
   <g id="line2d_46">
    <path clip-path="url(#p5f2e1479fc)" d="M 350.8992 531.855287 
L 379.4688 531.855287 
" style="fill:none;stroke:#747474;stroke-linecap:round;stroke-width:2.8;"/>
   </g>
   <g id="line2d_47">
    <path clip-path="url(#p5f2e1479fc)" d="M 350.8992 337.592961 
L 379.4688 337.592961 
" style="fill:none;stroke:#747474;stroke-linecap:round;stroke-width:2.8;"/>
   </g>
   <g id="line2d_48"/>
   <g id="line2d_49">
    <path clip-path="url(#p5f2e1479fc)" d="M 436.608 400.887367 
L 436.608 409.260115 
" style="fill:none;stroke:#747474;stroke-linecap:round;stroke-width:2.8;"/>
   </g>
   <g id="line2d_50">
    <path clip-path="url(#p5f2e1479fc)" d="M 436.608 363.222406 
L 436.608 348.703686 
" style="fill:none;stroke:#747474;stroke-linecap:round;stroke-width:2.8;"/>
   </g>
   <g id="line2d_51">
    <path clip-path="url(#p5f2e1479fc)" d="M 422.3232 409.260115 
L 450.8928 409.260115 
" style="fill:none;stroke:#747474;stroke-linecap:round;stroke-width:2.8;"/>
   </g>
   <g id="line2d_52">
    <path clip-path="url(#p5f2e1479fc)" d="M 422.3232 348.703686 
L 450.8928 348.703686 
" style="fill:none;stroke:#747474;stroke-linecap:round;stroke-width:2.8;"/>
   </g>
   <g id="line2d_53"/>
   <g id="line2d_54">
    <path clip-path="url(#p5f2e1479fc)" d="M 508.032 405.476579 
L 508.032 532.139838 
" style="fill:none;stroke:#747474;stroke-linecap:round;stroke-width:2.8;"/>
   </g>
   <g id="line2d_55">
    <path clip-path="url(#p5f2e1479fc)" d="M 508.032 315.394672 
L 508.032 269.929373 
" style="fill:none;stroke:#747474;stroke-linecap:round;stroke-width:2.8;"/>
   </g>
   <g id="line2d_56">
    <path clip-path="url(#p5f2e1479fc)" d="M 493.7472 532.139838 
L 522.3168 532.139838 
" style="fill:none;stroke:#747474;stroke-linecap:round;stroke-width:2.8;"/>
   </g>
   <g id="line2d_57">
    <path clip-path="url(#p5f2e1479fc)" d="M 493.7472 269.929373 
L 522.3168 269.929373 
" style="fill:none;stroke:#747474;stroke-linecap:round;stroke-width:2.8;"/>
   </g>
   <g id="line2d_58"/>
   <g id="line2d_59">
    <path clip-path="url(#p5f2e1479fc)" d="M 579.456 508.689193 
L 579.456 532.656 
" style="fill:none;stroke:#747474;stroke-linecap:round;stroke-width:2.8;"/>
   </g>
   <g id="line2d_60">
    <path clip-path="url(#p5f2e1479fc)" d="M 579.456 277.388911 
L 579.456 210.835403 
" style="fill:none;stroke:#747474;stroke-linecap:round;stroke-width:2.8;"/>
   </g>
   <g id="line2d_61">
    <path clip-path="url(#p5f2e1479fc)" d="M 565.1712 532.656 
L 593.7408 532.656 
" style="fill:none;stroke:#747474;stroke-linecap:round;stroke-width:2.8;"/>
   </g>
   <g id="line2d_62">
    <path clip-path="url(#p5f2e1479fc)" d="M 565.1712 210.835403 
L 593.7408 210.835403 
" style="fill:none;stroke:#747474;stroke-linecap:round;stroke-width:2.8;"/>
   </g>
   <g id="line2d_63"/>
   <g id="line2d_64">
    <path clip-path="url(#p5f2e1479fc)" d="M 650.88 432.340182 
L 650.88 494.287933 
" style="fill:none;stroke:#747474;stroke-linecap:round;stroke-width:2.8;"/>
   </g>
   <g id="line2d_65">
    <path clip-path="url(#p5f2e1479fc)" d="M 650.88 387.534975 
L 650.88 351.112443 
" style="fill:none;stroke:#747474;stroke-linecap:round;stroke-width:2.8;"/>
   </g>
   <g id="line2d_66">
    <path clip-path="url(#p5f2e1479fc)" d="M 636.5952 494.287933 
L 665.1648 494.287933 
" style="fill:none;stroke:#747474;stroke-linecap:round;stroke-width:2.8;"/>
   </g>
   <g id="line2d_67">
    <path clip-path="url(#p5f2e1479fc)" d="M 636.5952 351.112443 
L 665.1648 351.112443 
" style="fill:none;stroke:#747474;stroke-linecap:round;stroke-width:2.8;"/>
   </g>
   <g id="line2d_68"/>
   <g id="line2d_69">
    <path clip-path="url(#p5f2e1479fc)" d="M 722.304 321.019517 
L 722.304 421.621541 
" style="fill:none;stroke:#747474;stroke-linecap:round;stroke-width:2.8;"/>
   </g>
   <g id="line2d_70">
    <path clip-path="url(#p5f2e1479fc)" d="M 722.304 245.773968 
L 722.304 213.753706 
" style="fill:none;stroke:#747474;stroke-linecap:round;stroke-width:2.8;"/>
   </g>
   <g id="line2d_71">
    <path clip-path="url(#p5f2e1479fc)" d="M 708.0192 421.621541 
L 736.5888 421.621541 
" style="fill:none;stroke:#747474;stroke-linecap:round;stroke-width:2.8;"/>
   </g>
   <g id="line2d_72">
    <path clip-path="url(#p5f2e1479fc)" d="M 708.0192 213.753706 
L 736.5888 213.753706 
" style="fill:none;stroke:#747474;stroke-linecap:round;stroke-width:2.8;"/>
   </g>
   <g id="line2d_73"/>
   <g id="line2d_74">
    <path clip-path="url(#p5f2e1479fc)" d="M 793.728 383.86559 
L 793.728 447.284074 
" style="fill:none;stroke:#747474;stroke-linecap:round;stroke-width:2.8;"/>
   </g>
   <g id="line2d_75">
    <path clip-path="url(#p5f2e1479fc)" d="M 793.728 337.359695 
L 793.728 291.694218 
" style="fill:none;stroke:#747474;stroke-linecap:round;stroke-width:2.8;"/>
   </g>
   <g id="line2d_76">
    <path clip-path="url(#p5f2e1479fc)" d="M 779.4432 447.284074 
L 808.0128 447.284074 
" style="fill:none;stroke:#747474;stroke-linecap:round;stroke-width:2.8;"/>
   </g>
   <g id="line2d_77">
    <path clip-path="url(#p5f2e1479fc)" d="M 779.4432 291.694218 
L 808.0128 291.694218 
" style="fill:none;stroke:#747474;stroke-linecap:round;stroke-width:2.8;"/>
   </g>
   <g id="line2d_78"/>
   <g id="line2d_79">
    <path clip-path="url(#p5f2e1479fc)" d="M 122.3424 531.345742 
L 179.4816 531.345742 
" style="fill:none;stroke:#747474;stroke-linecap:round;stroke-width:2.8;"/>
   </g>
   <g id="line2d_80">
    <path clip-path="url(#p5f2e1479fc)" d="M 193.7664 491.707122 
L 250.9056 491.707122 
" style="fill:none;stroke:#747474;stroke-linecap:round;stroke-width:2.8;"/>
   </g>
   <g id="line2d_81">
    <path clip-path="url(#p5f2e1479fc)" d="M 265.1904 441.424308 
L 322.3296 441.424308 
" style="fill:none;stroke:#747474;stroke-linecap:round;stroke-width:2.8;"/>
   </g>
   <g id="line2d_82">
    <path clip-path="url(#p5f2e1479fc)" d="M 336.6144 436.732524 
L 393.7536 436.732524 
" style="fill:none;stroke:#747474;stroke-linecap:round;stroke-width:2.8;"/>
   </g>
   <g id="line2d_83">
    <path clip-path="url(#p5f2e1479fc)" d="M 408.0384 378.806538 
L 465.1776 378.806538 
" style="fill:none;stroke:#747474;stroke-linecap:round;stroke-width:2.8;"/>
   </g>
   <g id="line2d_84">
    <path clip-path="url(#p5f2e1479fc)" d="M 479.4624 357.07478 
L 536.6016 357.07478 
" style="fill:none;stroke:#747474;stroke-linecap:round;stroke-width:2.8;"/>
   </g>
   <g id="line2d_85">
    <path clip-path="url(#p5f2e1479fc)" d="M 550.8864 356.350167 
L 608.0256 356.350167 
" style="fill:none;stroke:#747474;stroke-linecap:round;stroke-width:2.8;"/>
   </g>
   <g id="line2d_86">
    <path clip-path="url(#p5f2e1479fc)" d="M 622.3104 405.845503 
L 679.4496 405.845503 
" style="fill:none;stroke:#747474;stroke-linecap:round;stroke-width:2.8;"/>
   </g>
   <g id="line2d_87">
    <path clip-path="url(#p5f2e1479fc)" d="M 693.7344 292.753012 
L 750.8736 292.753012 
" style="fill:none;stroke:#747474;stroke-linecap:round;stroke-width:2.8;"/>
   </g>
   <g id="line2d_88">
    <path clip-path="url(#p5f2e1479fc)" d="M 765.1584 354.523747 
L 822.2976 354.523747 
" style="fill:none;stroke:#747474;stroke-linecap:round;stroke-width:2.8;"/>
   </g>
   <g id="patch_13">
    <path d="M 115.2 554.4 
L 115.2 76.032 
" style="fill:none;stroke:#cccccc;stroke-linecap:square;stroke-linejoin:miter;"/>
   </g>
   <g id="patch_14">
    <path d="M 829.44 554.4 
L 829.44 76.032 
" style="fill:none;stroke:#cccccc;stroke-linecap:square;stroke-linejoin:miter;"/>
   </g>
   <g id="patch_15">
    <path d="M 115.2 554.4 
L 829.44 554.4 
" style="fill:none;stroke:#cccccc;stroke-linecap:square;stroke-linejoin:miter;"/>
   </g>
   <g id="patch_16">
    <path d="M 115.2 76.032 
L 829.44 76.032 
" style="fill:none;stroke:#cccccc;stroke-linecap:square;stroke-linejoin:miter;"/>
   </g>
   <g id="PathCollection_1">
    <defs>
     <path d="M 0 5 
C 1.326016 5 2.597899 4.473168 3.535534 3.535534 
C 4.473168 2.597899 5 1.326016 5 0 
C 5 -1.326016 4.473168 -2.597899 3.535534 -3.535534 
C 2.597899 -4.473168 1.326016 -5 0 -5 
C -1.326016 -5 -2.597899 -4.473168 -3.535534 -3.535534 
C -4.473168 -2.597899 -5 -1.326016 -5 0 
C -5 1.326016 -4.473168 2.597899 -3.535534 3.535534 
C -2.597899 4.473168 -1.326016 5 0 5 
z
" id="C0_0_0d48cad947"/>
    </defs>
    <g clip-path="url(#p5f2e1479fc)">
     <use x="150.912" xlink:href="#C0_0_0d48cad947" y="531.669998"/>
    </g>
    <g clip-path="url(#p5f2e1479fc)">
     <use x="140.412009" xlink:href="#C0_0_0d48cad947" y="531.656763"/>
    </g>
    <g clip-path="url(#p5f2e1479fc)">
     <use x="161.411887" xlink:href="#C0_0_0d48cad947" y="531.623675"/>
    </g>
    <g clip-path="url(#p5f2e1479fc)">
     <use x="171.911878" xlink:href="#C0_0_0d48cad947" y="531.61044"/>
    </g>
    <g clip-path="url(#p5f2e1479fc)">
     <use x="129.912754" xlink:href="#C0_0_0d48cad947" y="531.537648"/>
    </g>
    <g clip-path="url(#p5f2e1479fc)">
     <use x="179.4816" xlink:href="#C0_0_0d48cad947" y="531.458239"/>
    </g>
    <g clip-path="url(#p5f2e1479fc)">
     <use x="122.3424" xlink:href="#C0_0_0d48cad947" y="531.458239"/>
    </g>
    <g clip-path="url(#p5f2e1479fc)">
     <use x="179.4816" xlink:href="#C0_0_0d48cad947" y="531.451621"/>
    </g>
    <g clip-path="url(#p5f2e1479fc)">
     <use x="122.3424" xlink:href="#C0_0_0d48cad947" y="531.431769"/>
    </g>
    <g clip-path="url(#p5f2e1479fc)">
     <use x="179.4816" xlink:href="#C0_0_0d48cad947" y="531.392064"/>
    </g>
    <g clip-path="url(#p5f2e1479fc)">
     <use x="122.3424" xlink:href="#C0_0_0d48cad947" y="531.299419"/>
    </g>
    <g clip-path="url(#p5f2e1479fc)">
     <use x="179.4816" xlink:href="#C0_0_0d48cad947" y="530.657525"/>
    </g>
    <g clip-path="url(#p5f2e1479fc)">
     <use x="150.912" xlink:href="#C0_0_0d48cad947" y="490.48289"/>
    </g>
    <g clip-path="url(#p5f2e1479fc)">
     <use x="150.912" xlink:href="#C0_0_0d48cad947" y="469.25406"/>
    </g>
    <g clip-path="url(#p5f2e1479fc)">
     <use x="140.499787" xlink:href="#C0_0_0d48cad947" y="467.963654"/>
    </g>
    <g clip-path="url(#p5f2e1479fc)">
     <use x="159.133332" xlink:href="#C0_0_0d48cad947" y="463.033642"/>
    </g>
    <g clip-path="url(#p5f2e1479fc)">
     <use x="150.912" xlink:href="#C0_0_0d48cad947" y="454.556669"/>
    </g>
    <g clip-path="url(#p5f2e1479fc)">
     <use x="150.912" xlink:href="#C0_0_0d48cad947" y="428.444149"/>
    </g>
    <g clip-path="url(#p5f2e1479fc)">
     <use x="150.912" xlink:href="#C0_0_0d48cad947" y="389.414335"/>
    </g>
    <g clip-path="url(#p5f2e1479fc)">
     <use x="150.912" xlink:href="#C0_0_0d48cad947" y="372.122897"/>
    </g>
   </g>
   <g id="PathCollection_2">
    <defs>
     <path d="M 0 5 
C 1.326016 5 2.597899 4.473168 3.535534 3.535534 
C 4.473168 2.597899 5 1.326016 5 0 
C 5 -1.326016 4.473168 -2.597899 3.535534 -3.535534 
C 2.597899 -4.473168 1.326016 -5 0 -5 
C -1.326016 -5 -2.597899 -4.473168 -3.535534 -3.535534 
C -4.473168 -2.597899 -5 -1.326016 -5 0 
C -5 1.326016 -4.473168 2.597899 -3.535534 3.535534 
C -2.597899 4.473168 -1.326016 5 0 5 
z
" id="C1_0_513fffe3c9"/>
    </defs>
    <g clip-path="url(#p5f2e1479fc)">
     <use x="222.336" xlink:href="#C1_0_513fffe3c9" y="531.603823"/>
    </g>
    <g clip-path="url(#p5f2e1479fc)">
     <use x="211.83623" xlink:href="#C1_0_513fffe3c9" y="531.537648"/>
    </g>
    <g clip-path="url(#p5f2e1479fc)">
     <use x="232.498601" xlink:href="#C1_0_513fffe3c9" y="529.089186"/>
    </g>
    <g clip-path="url(#p5f2e1479fc)">
     <use x="202.972039" xlink:href="#C1_0_513fffe3c9" y="526.177501"/>
    </g>
    <g clip-path="url(#p5f2e1479fc)">
     <use x="222.336" xlink:href="#C1_0_513fffe3c9" y="521.254106"/>
    </g>
    <g clip-path="url(#p5f2e1479fc)">
     <use x="232.148024" xlink:href="#C1_0_513fffe3c9" y="517.69391"/>
    </g>
    <g clip-path="url(#p5f2e1479fc)">
     <use x="212.711194" xlink:href="#C1_0_513fffe3c9" y="517.257157"/>
    </g>
    <g clip-path="url(#p5f2e1479fc)">
     <use x="202.276283" xlink:href="#C1_0_513fffe3c9" y="516.145423"/>
    </g>
    <g clip-path="url(#p5f2e1479fc)">
     <use x="222.336" xlink:href="#C1_0_513fffe3c9" y="507.866973"/>
    </g>
    <g clip-path="url(#p5f2e1479fc)">
     <use x="212.284626" xlink:href="#C1_0_513fffe3c9" y="504.975141"/>
    </g>
    <g clip-path="url(#p5f2e1479fc)">
     <use x="222.336" xlink:href="#C1_0_513fffe3c9" y="478.439103"/>
    </g>
    <g clip-path="url(#p5f2e1479fc)">
     <use x="215.614902" xlink:href="#C1_0_513fffe3c9" y="470.756225"/>
    </g>
    <g clip-path="url(#p5f2e1479fc)">
     <use x="225.915643" xlink:href="#C1_0_513fffe3c9" y="468.817307"/>
    </g>
    <g clip-path="url(#p5f2e1479fc)">
     <use x="235.799595" xlink:href="#C1_0_513fffe3c9" y="465.4424"/>
    </g>
    <g clip-path="url(#p5f2e1479fc)">
     <use x="220.056475" xlink:href="#C1_0_513fffe3c9" y="460.519005"/>
    </g>
    <g clip-path="url(#p5f2e1479fc)">
     <use x="209.624711" xlink:href="#C1_0_513fffe3c9" y="459.380801"/>
    </g>
    <g clip-path="url(#p5f2e1479fc)">
     <use x="222.336" xlink:href="#C1_0_513fffe3c9" y="449.639892"/>
    </g>
    <g clip-path="url(#p5f2e1479fc)">
     <use x="222.336" xlink:href="#C1_0_513fffe3c9" y="438.138736"/>
    </g>
    <g clip-path="url(#p5f2e1479fc)">
     <use x="211.97721" xlink:href="#C1_0_513fffe3c9" y="436.504222"/>
    </g>
    <g clip-path="url(#p5f2e1479fc)">
     <use x="230.974607" xlink:href="#C1_0_513fffe3c9" y="432.454333"/>
    </g>
   </g>
   <g id="PathCollection_3">
    <defs>
     <path d="M 0 5 
C 1.326016 5 2.597899 4.473168 3.535534 3.535534 
C 4.473168 2.597899 5 1.326016 5 0 
C 5 -1.326016 4.473168 -2.597899 3.535534 -3.535534 
C 2.597899 -4.473168 1.326016 -5 0 -5 
C -1.326016 -5 -2.597899 -4.473168 -3.535534 -3.535534 
C -4.473168 -2.597899 -5 -1.326016 -5 0 
C -5 1.326016 -4.473168 2.597899 -3.535534 3.535534 
C -2.597899 4.473168 -1.326016 5 0 5 
z
" id="C2_0_cc85e7eb6a"/>
    </defs>
    <g clip-path="url(#p5f2e1479fc)">
     <use x="293.76" xlink:href="#C2_0_cc85e7eb6a" y="521.234254"/>
    </g>
    <g clip-path="url(#p5f2e1479fc)">
     <use x="293.76" xlink:href="#C2_0_cc85e7eb6a" y="494.446752"/>
    </g>
    <g clip-path="url(#p5f2e1479fc)">
     <use x="293.76" xlink:href="#C2_0_cc85e7eb6a" y="478.088377"/>
    </g>
    <g clip-path="url(#p5f2e1479fc)">
     <use x="293.76" xlink:href="#C2_0_cc85e7eb6a" y="466.726188"/>
    </g>
    <g clip-path="url(#p5f2e1479fc)">
     <use x="283.262817" xlink:href="#C2_0_cc85e7eb6a" y="466.494577"/>
    </g>
    <g clip-path="url(#p5f2e1479fc)">
     <use x="304.172213" xlink:href="#C2_0_cc85e7eb6a" y="465.435782"/>
    </g>
    <g clip-path="url(#p5f2e1479fc)">
     <use x="273.256683" xlink:href="#C2_0_cc85e7eb6a" y="463.463778"/>
    </g>
    <g clip-path="url(#p5f2e1479fc)">
     <use x="293.76" xlink:href="#C2_0_cc85e7eb6a" y="452.664073"/>
    </g>
    <g clip-path="url(#p5f2e1479fc)">
     <use x="283.307781" xlink:href="#C2_0_cc85e7eb6a" y="451.711158"/>
    </g>
    <g clip-path="url(#p5f2e1479fc)">
     <use x="302.469698" xlink:href="#C2_0_cc85e7eb6a" y="447.078932"/>
    </g>
    <g clip-path="url(#p5f2e1479fc)">
     <use x="293.76" xlink:href="#C2_0_cc85e7eb6a" y="435.769683"/>
    </g>
    <g clip-path="url(#p5f2e1479fc)">
     <use x="284.676477" xlink:href="#C2_0_cc85e7eb6a" y="430.753644"/>
    </g>
    <g clip-path="url(#p5f2e1479fc)">
     <use x="301.456043" xlink:href="#C2_0_cc85e7eb6a" y="428.966928"/>
    </g>
    <g clip-path="url(#p5f2e1479fc)">
     <use x="310.931756" xlink:href="#C2_0_cc85e7eb6a" y="424.658958"/>
    </g>
    <g clip-path="url(#p5f2e1479fc)">
     <use x="293.76" xlink:href="#C2_0_cc85e7eb6a" y="417.234161"/>
    </g>
    <g clip-path="url(#p5f2e1479fc)">
     <use x="283.623171" xlink:href="#C2_0_cc85e7eb6a" y="414.62688"/>
    </g>
    <g clip-path="url(#p5f2e1479fc)">
     <use x="293.76" xlink:href="#C2_0_cc85e7eb6a" y="405.302871"/>
    </g>
    <g clip-path="url(#p5f2e1479fc)">
     <use x="284.114131" xlink:href="#C2_0_cc85e7eb6a" y="401.352244"/>
    </g>
    <g clip-path="url(#p5f2e1479fc)">
     <use x="301.436644" xlink:href="#C2_0_cc85e7eb6a" y="398.480263"/>
    </g>
    <g clip-path="url(#p5f2e1479fc)">
     <use x="293.76" xlink:href="#C2_0_cc85e7eb6a" y="390.47313"/>
    </g>
   </g>
   <g id="PathCollection_4">
    <defs>
     <path d="M 0 5 
C 1.326016 5 2.597899 4.473168 3.535534 3.535534 
C 4.473168 2.597899 5 1.326016 5 0 
C 5 -1.326016 4.473168 -2.597899 3.535534 -3.535534 
C 2.597899 -4.473168 1.326016 -5 0 -5 
C -1.326016 -5 -2.597899 -4.473168 -3.535534 -3.535534 
C -4.473168 -2.597899 -5 -1.326016 -5 0 
C -5 1.326016 -4.473168 2.597899 -3.535534 3.535534 
C -2.597899 4.473168 -1.326016 5 0 5 
z
" id="C3_0_b0088eb15c"/>
    </defs>
    <g clip-path="url(#p5f2e1479fc)">
     <use x="365.184" xlink:href="#C3_0_b0088eb15c" y="531.855287"/>
    </g>
    <g clip-path="url(#p5f2e1479fc)">
     <use x="354.684186" xlink:href="#C3_0_b0088eb15c" y="531.795729"/>
    </g>
    <g clip-path="url(#p5f2e1479fc)">
     <use x="375.509956" xlink:href="#C3_0_b0088eb15c" y="530.042101"/>
    </g>
    <g clip-path="url(#p5f2e1479fc)">
     <use x="344.541751" xlink:href="#C3_0_b0088eb15c" y="529.2083"/>
    </g>
    <g clip-path="url(#p5f2e1479fc)">
     <use x="383.590241" xlink:href="#C3_0_b0088eb15c" y="523.656247"/>
    </g>
    <g clip-path="url(#p5f2e1479fc)">
     <use x="365.184" xlink:href="#C3_0_b0088eb15c" y="520.010023"/>
    </g>
    <g clip-path="url(#p5f2e1479fc)">
     <use x="365.184" xlink:href="#C3_0_b0088eb15c" y="489.523358"/>
    </g>
    <g clip-path="url(#p5f2e1479fc)">
     <use x="363.474922" xlink:href="#C3_0_b0088eb15c" y="479.656716"/>
    </g>
    <g clip-path="url(#p5f2e1479fc)">
     <use x="365.184" xlink:href="#C3_0_b0088eb15c" y="463.285106"/>
    </g>
    <g clip-path="url(#p5f2e1479fc)">
     <use x="365.184" xlink:href="#C3_0_b0088eb15c" y="442.585673"/>
    </g>
    <g clip-path="url(#p5f2e1479fc)">
     <use x="365.184" xlink:href="#C3_0_b0088eb15c" y="430.879376"/>
    </g>
    <g clip-path="url(#p5f2e1479fc)">
     <use x="354.706103" xlink:href="#C3_0_b0088eb15c" y="430.230864"/>
    </g>
    <g clip-path="url(#p5f2e1479fc)">
     <use x="365.184" xlink:href="#C3_0_b0088eb15c" y="418.120902"/>
    </g>
    <g clip-path="url(#p5f2e1479fc)">
     <use x="358.074121" xlink:href="#C3_0_b0088eb15c" y="410.76228"/>
    </g>
    <g clip-path="url(#p5f2e1479fc)">
     <use x="365.184" xlink:href="#C3_0_b0088eb15c" y="374.405923"/>
    </g>
    <g clip-path="url(#p5f2e1479fc)">
     <use x="354.76384" xlink:href="#C3_0_b0088eb15c" y="373.175074"/>
    </g>
    <g clip-path="url(#p5f2e1479fc)">
     <use x="362.779625" xlink:href="#C3_0_b0088eb15c" y="364.671631"/>
    </g>
    <g clip-path="url(#p5f2e1479fc)">
     <use x="372.731184" xlink:href="#C3_0_b0088eb15c" y="361.482012"/>
    </g>
    <g clip-path="url(#p5f2e1479fc)">
     <use x="365.184" xlink:href="#C3_0_b0088eb15c" y="341.755347"/>
    </g>
    <g clip-path="url(#p5f2e1479fc)">
     <use x="355.636818" xlink:href="#C3_0_b0088eb15c" y="337.592961"/>
    </g>
   </g>
   <g id="PathCollection_5">
    <defs>
     <path d="M 0 5 
C 1.326016 5 2.597899 4.473168 3.535534 3.535534 
C 4.473168 2.597899 5 1.326016 5 0 
C 5 -1.326016 4.473168 -2.597899 3.535534 -3.535534 
C 2.597899 -4.473168 1.326016 -5 0 -5 
C -1.326016 -5 -2.597899 -4.473168 -3.535534 -3.535534 
C -4.473168 -2.597899 -5 -1.326016 -5 0 
C -5 1.326016 -4.473168 2.597899 -3.535534 3.535534 
C -2.597899 4.473168 -1.326016 5 0 5 
z
" id="C4_0_f6a884f1c5"/>
    </defs>
    <g clip-path="url(#p5f2e1479fc)">
     <use x="436.608" xlink:href="#C4_0_f6a884f1c5" y="525.595164"/>
    </g>
    <g clip-path="url(#p5f2e1479fc)">
     <use x="436.608" xlink:href="#C4_0_f6a884f1c5" y="500.680405"/>
    </g>
    <g clip-path="url(#p5f2e1479fc)">
     <use x="426.15446" xlink:href="#C4_0_f6a884f1c5" y="499.740725"/>
    </g>
    <g clip-path="url(#p5f2e1479fc)">
     <use x="436.608" xlink:href="#C4_0_f6a884f1c5" y="468.711428"/>
    </g>
    <g clip-path="url(#p5f2e1479fc)">
     <use x="436.608" xlink:href="#C4_0_f6a884f1c5" y="409.260115"/>
    </g>
    <g clip-path="url(#p5f2e1479fc)">
     <use x="436.608" xlink:href="#C4_0_f6a884f1c5" y="398.09645"/>
    </g>
    <g clip-path="url(#p5f2e1479fc)">
     <use x="426.6682" xlink:href="#C4_0_f6a884f1c5" y="394.873745"/>
    </g>
    <g clip-path="url(#p5f2e1479fc)">
     <use x="443.618447" xlink:href="#C4_0_f6a884f1c5" y="390.651801"/>
    </g>
    <g clip-path="url(#p5f2e1479fc)">
     <use x="433.957712" xlink:href="#C4_0_f6a884f1c5" y="386.734262"/>
    </g>
    <g clip-path="url(#p5f2e1479fc)">
     <use x="441.427541" xlink:href="#C4_0_f6a884f1c5" y="379.706513"/>
    </g>
    <g clip-path="url(#p5f2e1479fc)">
     <use x="429.024754" xlink:href="#C4_0_f6a884f1c5" y="377.906562"/>
    </g>
    <g clip-path="url(#p5f2e1479fc)">
     <use x="450.765501" xlink:href="#C4_0_f6a884f1c5" y="375.133844"/>
    </g>
    <g clip-path="url(#p5f2e1479fc)">
     <use x="419.280682" xlink:href="#C4_0_f6a884f1c5" y="374.180929"/>
    </g>
    <g clip-path="url(#p5f2e1479fc)">
     <use x="460.438023" xlink:href="#C4_0_f6a884f1c5" y="371.242774"/>
    </g>
    <g clip-path="url(#p5f2e1479fc)">
     <use x="436.608" xlink:href="#C4_0_f6a884f1c5" y="363.923857"/>
    </g>
    <g clip-path="url(#p5f2e1479fc)">
     <use x="426.52978" xlink:href="#C4_0_f6a884f1c5" y="361.118051"/>
    </g>
    <g clip-path="url(#p5f2e1479fc)">
     <use x="446.642414" xlink:href="#C4_0_f6a884f1c5" y="360.979085"/>
    </g>
    <g clip-path="url(#p5f2e1479fc)">
     <use x="456.720634" xlink:href="#C4_0_f6a884f1c5" y="358.173279"/>
    </g>
    <g clip-path="url(#p5f2e1479fc)">
     <use x="435.930122" xlink:href="#C4_0_f6a884f1c5" y="353.944719"/>
    </g>
    <g clip-path="url(#p5f2e1479fc)">
     <use x="444.872497" xlink:href="#C4_0_f6a884f1c5" y="348.703686"/>
    </g>
   </g>
   <g id="PathCollection_6">
    <defs>
     <path d="M 0 5 
C 1.326016 5 2.597899 4.473168 3.535534 3.535534 
C 4.473168 2.597899 5 1.326016 5 0 
C 5 -1.326016 4.473168 -2.597899 3.535534 -3.535534 
C 2.597899 -4.473168 1.326016 -5 0 -5 
C -1.326016 -5 -2.597899 -4.473168 -3.535534 -3.535534 
C -4.473168 -2.597899 -5 -1.326016 -5 0 
C -5 1.326016 -4.473168 2.597899 -3.535534 3.535534 
C -2.597899 4.473168 -1.326016 5 0 5 
z
" id="C5_0_6a11f569c6"/>
    </defs>
    <g clip-path="url(#p5f2e1479fc)">
     <use x="508.032" xlink:href="#C5_0_6a11f569c6" y="532.139838"/>
    </g>
    <g clip-path="url(#p5f2e1479fc)">
     <use x="497.532113" xlink:href="#C5_0_6a11f569c6" y="532.093515"/>
    </g>
    <g clip-path="url(#p5f2e1479fc)">
     <use x="508.032" xlink:href="#C5_0_6a11f569c6" y="501.500971"/>
    </g>
    <g clip-path="url(#p5f2e1479fc)">
     <use x="508.032" xlink:href="#C5_0_6a11f569c6" y="477.069287"/>
    </g>
    <g clip-path="url(#p5f2e1479fc)">
     <use x="508.032" xlink:href="#C5_0_6a11f569c6" y="444.809141"/>
    </g>
    <g clip-path="url(#p5f2e1479fc)">
     <use x="508.032" xlink:href="#C5_0_6a11f569c6" y="392.365725"/>
    </g>
    <g clip-path="url(#p5f2e1479fc)">
     <use x="498.419361" xlink:href="#C5_0_6a11f569c6" y="388.342306"/>
    </g>
    <g clip-path="url(#p5f2e1479fc)">
     <use x="508.032" xlink:href="#C5_0_6a11f569c6" y="361.541569"/>
    </g>
    <g clip-path="url(#p5f2e1479fc)">
     <use x="497.562449" xlink:href="#C5_0_6a11f569c6" y="360.780561"/>
    </g>
    <g clip-path="url(#p5f2e1479fc)">
     <use x="518.246488" xlink:href="#C5_0_6a11f569c6" y="359.225456"/>
    </g>
    <g clip-path="url(#p5f2e1479fc)">
     <use x="489.051494" xlink:href="#C5_0_6a11f569c6" y="354.924104"/>
    </g>
    <g clip-path="url(#p5f2e1479fc)">
     <use x="508.032" xlink:href="#C5_0_6a11f569c6" y="348.935297"/>
    </g>
    <g clip-path="url(#p5f2e1479fc)">
     <use x="518.494265" xlink:href="#C5_0_6a11f569c6" y="348.088261"/>
    </g>
    <g clip-path="url(#p5f2e1479fc)">
     <use x="497.887706" xlink:href="#C5_0_6a11f569c6" y="346.354485"/>
    </g>
    <g clip-path="url(#p5f2e1479fc)">
     <use x="508.032" xlink:href="#C5_0_6a11f569c6" y="315.907525"/>
    </g>
    <g clip-path="url(#p5f2e1479fc)">
     <use x="497.75531" xlink:href="#C5_0_6a11f569c6" y="313.856111"/>
    </g>
    <g clip-path="url(#p5f2e1479fc)">
     <use x="517.739319" xlink:href="#C5_0_6a11f569c6" y="312.095865"/>
    </g>
    <g clip-path="url(#p5f2e1479fc)">
     <use x="490.183939" xlink:href="#C5_0_6a11f569c6" y="306.927624"/>
    </g>
    <g clip-path="url(#p5f2e1479fc)">
     <use x="508.032" xlink:href="#C5_0_6a11f569c6" y="293.606665"/>
    </g>
    <g clip-path="url(#p5f2e1479fc)">
     <use x="508.032" xlink:href="#C5_0_6a11f569c6" y="269.929373"/>
    </g>
   </g>
   <g id="PathCollection_7">
    <defs>
     <path d="M 0 5 
C 1.326016 5 2.597899 4.473168 3.535534 3.535534 
C 4.473168 2.597899 5 1.326016 5 0 
C 5 -1.326016 4.473168 -2.597899 3.535534 -3.535534 
C 2.597899 -4.473168 1.326016 -5 0 -5 
C -1.326016 -5 -2.597899 -4.473168 -3.535534 -3.535534 
C -4.473168 -2.597899 -5 -1.326016 -5 0 
C -5 1.326016 -4.473168 2.597899 -3.535534 3.535534 
C -2.597899 4.473168 -1.326016 5 0 5 
z
" id="C6_0_73a9ec41cf"/>
    </defs>
    <g clip-path="url(#p5f2e1479fc)">
     <use x="579.456" xlink:href="#C6_0_73a9ec41cf" y="532.656"/>
    </g>
    <g clip-path="url(#p5f2e1479fc)">
     <use x="568.96964" xlink:href="#C6_0_73a9ec41cf" y="532.146455"/>
    </g>
    <g clip-path="url(#p5f2e1479fc)">
     <use x="589.878724" xlink:href="#C6_0_73a9ec41cf" y="531.445004"/>
    </g>
    <g clip-path="url(#p5f2e1479fc)">
     <use x="558.869391" xlink:href="#C6_0_73a9ec41cf" y="529.413442"/>
    </g>
    <g clip-path="url(#p5f2e1479fc)">
     <use x="576.338271" xlink:href="#C6_0_73a9ec41cf" y="523.106997"/>
    </g>
    <g clip-path="url(#p5f2e1479fc)">
     <use x="579.456" xlink:href="#C6_0_73a9ec41cf" y="503.883259"/>
    </g>
    <g clip-path="url(#p5f2e1479fc)">
     <use x="573.147467" xlink:href="#C6_0_73a9ec41cf" y="495.88936"/>
    </g>
    <g clip-path="url(#p5f2e1479fc)">
     <use x="579.456" xlink:href="#C6_0_73a9ec41cf" y="478.253814"/>
    </g>
    <g clip-path="url(#p5f2e1479fc)">
     <use x="579.456" xlink:href="#C6_0_73a9ec41cf" y="457.223507"/>
    </g>
    <g clip-path="url(#p5f2e1479fc)">
     <use x="579.456" xlink:href="#C6_0_73a9ec41cf" y="371.745702"/>
    </g>
    <g clip-path="url(#p5f2e1479fc)">
     <use x="579.456" xlink:href="#C6_0_73a9ec41cf" y="340.954633"/>
    </g>
    <g clip-path="url(#p5f2e1479fc)">
     <use x="579.456" xlink:href="#C6_0_73a9ec41cf" y="326.561645"/>
    </g>
    <g clip-path="url(#p5f2e1479fc)">
     <use x="579.456" xlink:href="#C6_0_73a9ec41cf" y="311.493675"/>
    </g>
    <g clip-path="url(#p5f2e1479fc)">
     <use x="579.456" xlink:href="#C6_0_73a9ec41cf" y="294.268412"/>
    </g>
    <g clip-path="url(#p5f2e1479fc)">
     <use x="579.456" xlink:href="#C6_0_73a9ec41cf" y="278.704132"/>
    </g>
    <g clip-path="url(#p5f2e1479fc)">
     <use x="570.526487" xlink:href="#C6_0_73a9ec41cf" y="273.443247"/>
    </g>
    <g clip-path="url(#p5f2e1479fc)">
     <use x="579.456" xlink:href="#C6_0_73a9ec41cf" y="246.556484"/>
    </g>
    <g clip-path="url(#p5f2e1479fc)">
     <use x="575.590095" xlink:href="#C6_0_73a9ec41cf" y="237.258944"/>
    </g>
    <g clip-path="url(#p5f2e1479fc)">
     <use x="579.456" xlink:href="#C6_0_73a9ec41cf" y="216.837445"/>
    </g>
    <g clip-path="url(#p5f2e1479fc)">
     <use x="571.057608" xlink:href="#C6_0_73a9ec41cf" y="210.835403"/>
    </g>
   </g>
   <g id="PathCollection_8">
    <defs>
     <path d="M 0 5 
C 1.326016 5 2.597899 4.473168 3.535534 3.535534 
C 4.473168 2.597899 5 1.326016 5 0 
C 5 -1.326016 4.473168 -2.597899 3.535534 -3.535534 
C 2.597899 -4.473168 1.326016 -5 0 -5 
C -1.326016 -5 -2.597899 -4.473168 -3.535534 -3.535534 
C -4.473168 -2.597899 -5 -1.326016 -5 0 
C -5 1.326016 -4.473168 2.597899 -3.535534 3.535534 
C -2.597899 4.473168 -1.326016 5 0 5 
z
" id="C7_0_0644710ced"/>
    </defs>
    <g clip-path="url(#p5f2e1479fc)">
     <use x="650.88" xlink:href="#C7_0_0644710ced" y="513.154328"/>
    </g>
    <g clip-path="url(#p5f2e1479fc)">
     <use x="650.88" xlink:href="#C7_0_0644710ced" y="494.287933"/>
    </g>
    <g clip-path="url(#p5f2e1479fc)">
     <use x="641.184186" xlink:href="#C7_0_0644710ced" y="490.449803"/>
    </g>
    <g clip-path="url(#p5f2e1479fc)">
     <use x="650.88" xlink:href="#C7_0_0644710ced" y="477.287664"/>
    </g>
    <g clip-path="url(#p5f2e1479fc)">
     <use x="650.88" xlink:href="#C7_0_0644710ced" y="463.821121"/>
    </g>
    <g clip-path="url(#p5f2e1479fc)">
     <use x="650.88" xlink:href="#C7_0_0644710ced" y="421.846535"/>
    </g>
    <g clip-path="url(#p5f2e1479fc)">
     <use x="640.436822" xlink:href="#C7_0_0644710ced" y="420.807593"/>
    </g>
    <g clip-path="url(#p5f2e1479fc)">
     <use x="660.894931" xlink:href="#C7_0_0644710ced" y="418.842206"/>
    </g>
    <g clip-path="url(#p5f2e1479fc)">
     <use x="631.212793" xlink:href="#C7_0_0644710ced" y="416.029783"/>
    </g>
    <g clip-path="url(#p5f2e1479fc)">
     <use x="650.88" xlink:href="#C7_0_0644710ced" y="406.851358"/>
    </g>
    <g clip-path="url(#p5f2e1479fc)">
     <use x="640.59466" xlink:href="#C7_0_0644710ced" y="404.839648"/>
    </g>
    <g clip-path="url(#p5f2e1479fc)">
     <use x="650.88" xlink:href="#C7_0_0644710ced" y="394.973007"/>
    </g>
    <g clip-path="url(#p5f2e1479fc)">
     <use x="641.013621" xlink:href="#C7_0_0644710ced" y="391.551777"/>
    </g>
    <g clip-path="url(#p5f2e1479fc)">
     <use x="660.305252" xlink:href="#C7_0_0644710ced" y="390.565774"/>
    </g>
    <g clip-path="url(#p5f2e1479fc)">
     <use x="670.350306" xlink:href="#C7_0_0644710ced" y="387.654089"/>
    </g>
    <g clip-path="url(#p5f2e1479fc)">
     <use x="631.57139" xlink:href="#C7_0_0644710ced" y="387.177632"/>
    </g>
    <g clip-path="url(#p5f2e1479fc)">
     <use x="650.88" xlink:href="#C7_0_0644710ced" y="376.583069"/>
    </g>
    <g clip-path="url(#p5f2e1479fc)">
     <use x="641.454748" xlink:href="#C7_0_0644710ced" y="372.175837"/>
    </g>
    <g clip-path="url(#p5f2e1479fc)">
     <use x="659.395971" xlink:href="#C7_0_0644710ced" y="370.733229"/>
    </g>
    <g clip-path="url(#p5f2e1479fc)">
     <use x="650.88" xlink:href="#C7_0_0644710ced" y="351.112443"/>
    </g>
   </g>
   <g id="PathCollection_9">
    <defs>
     <path d="M 0 5 
C 1.326016 5 2.597899 4.473168 3.535534 3.535534 
C 4.473168 2.597899 5 1.326016 5 0 
C 5 -1.326016 4.473168 -2.597899 3.535534 -3.535534 
C 2.597899 -4.473168 1.326016 -5 0 -5 
C -1.326016 -5 -2.597899 -4.473168 -3.535534 -3.535534 
C -4.473168 -2.597899 -5 -1.326016 -5 0 
C -5 1.326016 -4.473168 2.597899 -3.535534 3.535534 
C -2.597899 4.473168 -1.326016 5 0 5 
z
" id="C8_0_6dca86fd54"/>
    </defs>
    <g clip-path="url(#p5f2e1479fc)">
     <use x="722.304" xlink:href="#C8_0_6dca86fd54" y="509.85883"/>
    </g>
    <g clip-path="url(#p5f2e1479fc)">
     <use x="722.304" xlink:href="#C8_0_6dca86fd54" y="484.659521"/>
    </g>
    <g clip-path="url(#p5f2e1479fc)">
     <use x="722.304" xlink:href="#C8_0_6dca86fd54" y="421.621541"/>
    </g>
    <g clip-path="url(#p5f2e1479fc)">
     <use x="712.747303" xlink:href="#C8_0_6dca86fd54" y="417.479008"/>
    </g>
    <g clip-path="url(#p5f2e1479fc)">
     <use x="722.304" xlink:href="#C8_0_6dca86fd54" y="345.030992"/>
    </g>
    <g clip-path="url(#p5f2e1479fc)">
     <use x="722.304" xlink:href="#C8_0_6dca86fd54" y="313.015693"/>
    </g>
    <g clip-path="url(#p5f2e1479fc)">
     <use x="722.304" xlink:href="#C8_0_6dca86fd54" y="298.847698"/>
    </g>
    <g clip-path="url(#p5f2e1479fc)">
     <use x="711.824334" xlink:href="#C8_0_6dca86fd54" y="298.225657"/>
    </g>
    <g clip-path="url(#p5f2e1479fc)">
     <use x="732.775635" xlink:href="#C8_0_6dca86fd54" y="298.11316"/>
    </g>
    <g clip-path="url(#p5f2e1479fc)">
     <use x="701.410322" xlink:href="#C8_0_6dca86fd54" y="296.948486"/>
    </g>
    <g clip-path="url(#p5f2e1479fc)">
     <use x="722.304" xlink:href="#C8_0_6dca86fd54" y="288.557539"/>
    </g>
    <g clip-path="url(#p5f2e1479fc)">
     <use x="722.304" xlink:href="#C8_0_6dca86fd54" y="274.382927"/>
    </g>
    <g clip-path="url(#p5f2e1479fc)">
     <use x="722.304" xlink:href="#C8_0_6dca86fd54" y="261.194318"/>
    </g>
    <g clip-path="url(#p5f2e1479fc)">
     <use x="711.809981" xlink:href="#C8_0_6dca86fd54" y="260.856827"/>
    </g>
    <g clip-path="url(#p5f2e1479fc)">
     <use x="722.304" xlink:href="#C8_0_6dca86fd54" y="250.407849"/>
    </g>
    <g clip-path="url(#p5f2e1479fc)">
     <use x="722.304" xlink:href="#C8_0_6dca86fd54" y="231.872327"/>
    </g>
    <g clip-path="url(#p5f2e1479fc)">
     <use x="722.304" xlink:href="#C8_0_6dca86fd54" y="220.205735"/>
    </g>
    <g clip-path="url(#p5f2e1479fc)">
     <use x="713.005736" xlink:href="#C8_0_6dca86fd54" y="215.560274"/>
    </g>
    <g clip-path="url(#p5f2e1479fc)">
     <use x="730.326118" xlink:href="#C8_0_6dca86fd54" y="213.753706"/>
    </g>
    <g clip-path="url(#p5f2e1479fc)">
     <use x="722.304" xlink:href="#C8_0_6dca86fd54" y="97.776"/>
    </g>
   </g>
   <g id="PathCollection_10">
    <defs>
     <path d="M 0 5 
C 1.326016 5 2.597899 4.473168 3.535534 3.535534 
C 4.473168 2.597899 5 1.326016 5 0 
C 5 -1.326016 4.473168 -2.597899 3.535534 -3.535534 
C 2.597899 -4.473168 1.326016 -5 0 -5 
C -1.326016 -5 -2.597899 -4.473168 -3.535534 -3.535534 
C -4.473168 -2.597899 -5 -1.326016 -5 0 
C -5 1.326016 -4.473168 2.597899 -3.535534 3.535534 
C -2.597899 4.473168 -1.326016 5 0 5 
z
" id="C9_0_97bd9a7e33"/>
    </defs>
    <g clip-path="url(#p5f2e1479fc)">
     <use x="793.728" xlink:href="#C9_0_97bd9a7e33" y="505.756002"/>
    </g>
    <g clip-path="url(#p5f2e1479fc)">
     <use x="784.146198" xlink:href="#C9_0_97bd9a7e33" y="501.666408"/>
    </g>
    <g clip-path="url(#p5f2e1479fc)">
     <use x="793.728" xlink:href="#C9_0_97bd9a7e33" y="459.883729"/>
    </g>
    <g clip-path="url(#p5f2e1479fc)">
     <use x="793.728" xlink:href="#C9_0_97bd9a7e33" y="447.284074"/>
    </g>
    <g clip-path="url(#p5f2e1479fc)">
     <use x="793.728" xlink:href="#C9_0_97bd9a7e33" y="391.081937"/>
    </g>
    <g clip-path="url(#p5f2e1479fc)">
     <use x="790.86763" xlink:href="#C9_0_97bd9a7e33" y="381.460141"/>
    </g>
    <g clip-path="url(#p5f2e1479fc)">
     <use x="800.985438" xlink:href="#C9_0_97bd9a7e33" y="378.786685"/>
    </g>
    <g clip-path="url(#p5f2e1479fc)">
     <use x="793.728" xlink:href="#C9_0_97bd9a7e33" y="367.305382"/>
    </g>
    <g clip-path="url(#p5f2e1479fc)">
     <use x="785.653486" xlink:href="#C9_0_97bd9a7e33" y="360.91291"/>
    </g>
    <g clip-path="url(#p5f2e1479fc)">
     <use x="794.88506" xlink:href="#C9_0_97bd9a7e33" y="356.148335"/>
    </g>
    <g clip-path="url(#p5f2e1479fc)">
     <use x="804.815354" xlink:href="#C9_0_97bd9a7e33" y="352.899159"/>
    </g>
    <g clip-path="url(#p5f2e1479fc)">
     <use x="787.685622" xlink:href="#C9_0_97bd9a7e33" y="348.869122"/>
    </g>
    <g clip-path="url(#p5f2e1479fc)">
     <use x="777.226985" xlink:href="#C9_0_97bd9a7e33" y="347.982382"/>
    </g>
    <g clip-path="url(#p5f2e1479fc)">
     <use x="796.068331" xlink:href="#C9_0_97bd9a7e33" y="342.847228"/>
    </g>
    <g clip-path="url(#p5f2e1479fc)">
     <use x="787.050185" xlink:href="#C9_0_97bd9a7e33" y="337.72531"/>
    </g>
    <g clip-path="url(#p5f2e1479fc)">
     <use x="803.971" xlink:href="#C9_0_97bd9a7e33" y="336.26285"/>
    </g>
    <g clip-path="url(#p5f2e1479fc)">
     <use x="778.032039" xlink:href="#C9_0_97bd9a7e33" y="332.603391"/>
    </g>
    <g clip-path="url(#p5f2e1479fc)">
     <use x="793.728" xlink:href="#C9_0_97bd9a7e33" y="328.057192"/>
    </g>
    <g clip-path="url(#p5f2e1479fc)">
     <use x="793.728" xlink:href="#C9_0_97bd9a7e33" y="303.069642"/>
    </g>
    <g clip-path="url(#p5f2e1479fc)">
     <use x="793.728" xlink:href="#C9_0_97bd9a7e33" y="291.694218"/>
    </g>
   </g>
  </g>
 </g>
 <defs>
  <clipPath id="p5f2e1479fc">
   <rect height="478.368" width="714.24" x="115.2" y="76.032"/>
  </clipPath>
 </defs>
</svg>
